<svg width="686" height="438" viewBox="0 0 686 438" fill="none" xmlns="http://www.w3.org/2000/svg">
<g clip-path="url(#clip0_2448_8320)">
<path d="M519.6 304.54L510.41 277.57L495.05 282.8L463.69 190.78L428.73 202.69L428.84 203L417.56 251.68L401.52 320.93L410.88 341.6L443.89 330.35L455.91 326.25L469.29 321.69L480.21 353.75L515.17 341.84L504.25 309.78L519.61 304.54H519.6ZM456.03 296.1L448.1 298.8L432.91 303.98L443.28 252.51L444.25 248.24L460.09 294.72L456.03 296.1Z" fill="#98C4F9"/>
<g style="mix-blend-mode:overlay" opacity="0.25">
<path d="M504.24 309.77L515.17 341.83L492.9 332.3L457.3 204.06L444.25 248.23L438.2 273.25L417.56 251.68L428.83 203L428.73 202.69L463.69 190.77L495.05 282.79L510.4 277.56L519.6 304.54L504.24 309.77Z" fill="black"/>
</g>
<g style="mix-blend-mode:overlay" opacity="0.25">
<path d="M455.9 326.24L443.88 330.34L445.65 305.57V301.06L448.1 298.8L449.67 297.35L456.03 296.1C456.03 296.1 455.63 314.29 455.91 326.25L455.9 326.24Z" fill="black"/>
</g>
<path d="M456.03 296.09C456.03 296.09 453.03 292.32 447.78 292.75C442.54 293.19 439.61 295.15 439.43 300.62C439.25 306.08 440.56 333.61 439.36 344.54C438.16 355.46 445.61 356.56 446.04 348.47C446.47 340.39 443.3 315.04 445.65 310.89C448 306.74 446.57 315.48 449.03 318.32C451.49 321.16 454.11 316.14 451.49 309.36C448.87 302.58 456.02 296.09 456.02 296.09H456.03Z" fill="url(#paint0_linear_2448_8320)"/>
<path d="M135.85 255.31C134.95 255.31 134.29 255.26 134 255.14C133.66 255 132.64 254.57 123.72 238.65L125.32 237.75C128.65 243.7 133.7 252.35 134.77 253.46C135.74 253.62 141.08 253.24 145.81 252.77L145.99 254.6C143.01 254.9 138.45 255.31 135.84 255.31H135.85Z" fill="#FF6643"/>
<path d="M168.19 263.03V263.56C168.19 263.56 167.7 273.67 160.14 273.23C160.12 273.23 160.1 273.23 160.08 273.23C155.4 272.93 149.61 270.74 145.72 269.12C143.28 268.1 141.59 267.3 141.4 267.33C140.91 267.41 147.13 293.3 147.05 294.78C147.05 294.98 146.99 295.19 146.93 295.41C146.49 296.81 144.95 298.49 144.02 298.63C143.92 298.64 143.73 298.46 143.45 298.12C140.64 294.62 129.5 274.3 129.19 267.67C128.86 260.38 132.55 255.99 137.55 255.15C141.24 254.53 152.02 256.02 157.42 256.84C159.34 257.13 160.57 257.34 160.57 257.34L168.19 263.04V263.03Z" fill="#092533"/>
<g style="mix-blend-mode:overlay" opacity="0.25">
<path d="M147.05 294.78C147.05 294.98 146.99 295.19 146.93 295.41C146.49 296.81 144.95 298.49 144.02 298.63C143.92 298.64 143.73 298.46 143.45 298.12C147.41 292.53 137.06 265.29 139.31 265.21C140.42 265.17 142.88 267.06 145.73 269.13C143.29 268.11 141.6 267.31 141.41 267.34C140.92 267.42 147.14 293.31 147.06 294.79L147.05 294.78Z" fill="black"/>
</g>
<g style="mix-blend-mode:overlay" opacity="0.25">
<path d="M168.19 263.03V263.56C168.19 263.56 167.7 273.67 160.14 273.23C161.63 272.04 161.91 269.94 161.8 267.41C161.67 264.47 158.95 259.44 157.43 256.83C159.35 257.12 160.58 257.33 160.58 257.33L168.2 263.03H168.19Z" fill="black"/>
</g>
<path d="M152.09 229.84C151.84 230.24 151.67 230.57 151.67 230.82C151.67 230.82 151.67 230.81 151.64 230.77C151.55 230.61 151.24 230.07 150.83 229.43C150.14 228.36 149.19 227.04 148.61 226.88C147.69 226.63 145.23 229.73 141.9 229.98C141.68 230 141.46 230 141.23 229.99C137.57 229.82 133.69 224.63 136.81 218.52C137.9 220.76 140.14 220.81 140.14 220.81C140.14 220.81 138.77 220.53 138.72 218.84C142.71 219.55 144.78 216.55 148.22 217.64C151.66 218.73 151.44 220.81 151.44 220.81C151.44 220.81 154.06 219.77 154.88 223.05C155.54 225.67 153.09 228.25 152.08 229.83L152.09 229.84Z" fill="#092533"/>
<path d="M151.64 230.77C151.41 231.6 150.96 232.5 150.36 233.23C149.63 234.12 148.66 234.77 147.57 234.75C145.24 234.69 142.93 231.57 141.9 229.99C145.22 229.74 147.68 226.63 148.61 226.89C149.18 227.05 150.14 228.38 150.83 229.44C151.24 230.07 151.56 230.62 151.64 230.78V230.77Z" fill="url(#paint1_linear_2448_8320)"/>
<path d="M155 231.09C155 231.09 153.25 235.08 152.6 234.21C152.25 233.74 151.23 233.42 150.36 233.24C150.96 232.51 151.41 231.61 151.64 230.78C151.66 230.81 151.67 230.83 151.67 230.83C151.67 230.58 151.84 230.25 152.09 229.85C153.36 230.81 155 231.1 155 231.1V231.09Z" fill="url(#paint2_linear_2448_8320)"/>
<path d="M167.29 264.79C164.5 264.38 156.97 256.19 156.97 252.66C156.97 252.16 156.91 251.61 156.82 251.01C156.24 247.34 154.12 241.96 153.24 238.16C152.21 233.74 153.69 232.08 153.69 232.08C157.12 226.18 164.88 237.87 169.31 247.25C170.8 250.41 171.78 253.35 171.88 255.31C172.2 261.95 170.08 265.2 167.29 264.79Z" fill="#4D5AFF"/>
<g style="mix-blend-mode:overlay" opacity="0.25">
<path d="M167.29 264.79C164.5 264.38 156.97 256.19 156.97 252.66C156.97 252.16 156.91 251.61 156.82 251.01L156.8 249.44L159.53 235.13C159.53 235.13 163.3 239.61 163.9 247.64C164.5 255.67 173.34 257.41 169.31 247.25C170.8 250.41 171.78 253.34 171.88 255.3C172.2 261.94 170.08 265.19 167.29 264.78V264.79Z" fill="black"/>
</g>
<path d="M161.45 247.1C161.38 247.16 161.25 247.21 161.08 247.26C159.79 247.62 156.02 247.56 154.46 247.26C154.23 247.21 154.04 247.16 153.92 247.1C152.89 246.61 153.92 245.4 153.59 243.27C153.26 241.14 152.45 234.91 155.61 233C158.92 231 161.34 238.57 161.45 242.34C161.56 246.11 162.16 246.49 161.45 247.09V247.1Z" fill="#4D5AFF"/>
<path d="M161.08 247.26C161.08 247.26 160.93 256.47 159.17 260.81C158.62 262.17 157.92 263.05 157.01 263.03C153.2 262.95 144.64 253.9 143.86 253.56C143.08 253.23 139.19 253.81 139.31 253.23C139.43 252.66 140.95 251.39 142.59 250.78C144.23 250.16 143.94 250.53 154.47 255.37C154.33 254.44 154.39 250.42 154.43 248.15C154.43 247.81 154.44 247.5 154.45 247.25C156.02 247.56 159.78 247.61 161.07 247.25L161.08 247.26Z" fill="url(#paint3_linear_2448_8320)"/>
<path d="M150.19 301.01C150.46 302.65 139.43 313.87 140.01 310.93C140.58 307.98 144.02 298.64 144.02 298.64C144.94 298.5 146.48 296.82 146.93 295.42C147.83 296.98 149.97 299.66 150.19 301.02V301.01Z" fill="#4D5AFF"/>
<g style="mix-blend-mode:overlay" opacity="0.25">
<path d="M160.14 266.54C160.14 266.54 142.44 263.22 138.95 264.82C135.45 266.43 145.35 294.39 145.35 294.39" stroke="white" stroke-width="0.46" stroke-miterlimit="10"/>
</g>
<g style="mix-blend-mode:overlay" opacity="0.25">
<path d="M159.17 260.81C159.51 258.96 159.76 253.59 158.83 251.46C158.2 250.03 155.88 248.79 154.43 248.15C154.43 247.81 154.44 247.5 154.45 247.25C156.02 247.56 159.78 247.61 161.07 247.25C161.07 247.25 160.92 256.46 159.16 260.8L159.17 260.81Z" fill="black"/>
</g>
<path d="M445.18 198.53C444.82 199.91 444.22 201.68 443.29 204.06C441.97 207.47 439.97 212.11 437.02 218.58C436.95 221.87 435.9 242.84 435.61 247.66C435.57 248.25 435.55 248.6 435.54 248.64C435.5 248.85 434.74 249.26 433.91 249.46C433.13 249.66 432.29 249.69 431.93 249.21C431.19 248.23 426.19 228.4 425.95 223.73C425.7 219.06 425.46 220.13 431.19 201.53C429.8 202.18 420.77 201.94 420.77 201.94C420.77 201.94 422.43 224.72 422.43 224.88C422.43 224.9 422.42 224.96 422.38 225.04C422.27 225.35 421.94 226.05 421.58 226.4C421.42 226.56 421.25 226.65 421.1 226.61C421.01 226.59 420.8 226.39 420.49 226.07C418.76 224.23 414 218.04 411.43 212.27C408.4 205.47 407.66 200.72 410.53 195.97C413.4 191.22 427.93 190.85 427.93 190.85C428.85 191.11 430.96 191.36 433.06 191.86C433.68 192 434.29 192.17 434.87 192.37C438.05 193.43 444.12 194.77 445.42 194.02C445.71 195.03 445.77 196.22 445.16 198.54L445.18 198.53Z" fill="#0195FF"/>
<path d="M457.22 182.7C456.65 183.03 449.97 182.78 445.46 181.06C445.48 181.86 445.58 183.11 445.7 184.53C445.88 186.77 446.09 189.43 446.04 191.37C446.01 192.75 445.85 193.77 445.47 194.01C445.47 194.01 445.47 194.01 445.45 194.01C444.76 194.41 442.72 194.22 440.49 193.79C439.05 193.51 437.52 193.14 436.22 192.77C435.75 192.63 435.3 192.49 434.9 192.36C432.34 191.5 429.15 191.18 427.96 190.85C427.66 190.77 427.49 190.69 427.48 190.6C427.44 190.15 428.59 189.13 429.13 188.06C429.19 187.93 429.28 187.73 429.38 187.48C429.82 186.36 430.5 184.25 430.83 182.9C431.03 182.1 431.1 181.58 430.93 181.67C430.4 181.96 427.24 187.85 426.88 187.85C426.75 187.85 426.12 187.49 425.36 186.98C424.09 186.12 422.5 184.86 422.46 184.25C422.46 184.17 422.47 184.1 422.53 184.04C423.27 183.34 428.92 173.84 430.97 171.81C431.93 170.85 433.07 170.28 433.99 169.94C435.02 169.55 435.81 169.47 435.81 169.47C437.03 169.43 438.26 169.59 439.45 169.89C443.51 170.91 447.24 173.47 449.37 174.74C452.11 176.38 454 175.93 454.69 176.34C455.39 176.75 457.8 182.36 457.23 182.69L457.22 182.7Z" fill="#FF6643"/>
<path d="M446.03 191.36C442.25 191.41 433.85 191.07 429.36 187.48C429.8 186.36 430.48 184.25 430.81 182.9C430.81 182.9 439.68 185.59 445.69 184.52C445.87 186.76 446.08 189.42 446.03 191.36Z" fill="#FF9280"/>
<g style="mix-blend-mode:overlay" opacity="0.25">
<path d="M439.43 169.9C439.28 171.47 438.73 173.16 437.02 173.03C434.61 172.84 434.09 170.87 433.98 169.95C435.01 169.56 435.8 169.48 435.8 169.48C437.02 169.44 438.25 169.6 439.44 169.9H439.43Z" fill="black"/>
</g>
<path d="M438.41 166.47C438.41 166.47 438 164.79 437.18 163.93C436.51 165.02 433.94 165.57 431.96 165.71C431.02 165.78 430.21 165.76 429.8 165.65C428.41 160.24 432.75 157.87 435.17 157.7C437.58 157.53 439.76 159.33 439.1 162.08C441.27 164.22 438.41 166.47 438.41 166.47Z" fill="#350909"/>
<path d="M438.41 166.47C438.29 166.83 438.09 167.46 437.76 168.05C437.22 169.03 436.31 169.9 434.73 169.26C434.67 169.24 434.62 169.21 434.57 169.19C433.24 168.59 432.55 167.42 432.2 166.49C432.09 166.2 432.01 165.93 431.96 165.72C433.94 165.58 436.51 165.02 437.18 163.94C437.22 163.98 437.25 164.02 437.29 164.06C438.04 164.95 438.41 166.48 438.41 166.48V166.47Z" fill="url(#paint4_linear_2448_8320)"/>
<path d="M438.21 170.65C437.97 172.17 435.47 172.08 435.19 171.1C435.05 170.59 434.89 170.1 434.76 169.74C434.65 169.4 434.57 169.19 434.57 169.19C434.62 169.21 434.68 169.24 434.73 169.26C436.31 169.9 437.22 169.03 437.76 168.05C437.59 168.39 438.04 168.82 438.2 169.62C438.26 169.91 438.27 170.25 438.2 170.65H438.21Z" fill="url(#paint5_linear_2448_8320)"/>
<path d="M425.22 230.71C424.98 232.59 415.23 239.97 415.39 238.66C415.55 237.35 420.52 226.07 420.52 226.07C420.83 226.4 421.04 226.59 421.13 226.61C421.62 226.75 422.25 225.5 422.4 225.05C423.71 226.7 425.44 229.03 425.22 230.71Z" fill="#12006D"/>
<path d="M431.94 264.58C429.65 259.66 431.94 249.23 431.94 249.23C432.68 250.21 435.46 249.06 435.54 248.66C435.54 248.61 435.57 248.26 435.61 247.68C435.61 247.68 435.98 252.68 436.41 256.91C436.85 261.14 434.23 269.5 431.93 264.59L431.94 264.58Z" fill="#12006D"/>
<g style="mix-blend-mode:overlay" opacity="0.25">
<path d="M431.2 201.54C429.81 202.19 420.78 201.95 420.78 201.95C420.78 201.95 422.44 224.73 422.44 224.89C422.44 224.91 422.43 224.97 422.39 225.05C422.28 225.36 421.95 226.06 421.59 226.41C419.93 218.62 416.61 203.68 419.25 201.11C422.64 197.83 431.81 196.96 431.95 197.68C432.08 198.4 431.19 201.55 431.19 201.55L431.2 201.54Z" fill="black"/>
</g>
<path d="M424.7 190.78C424.57 191.06 424.5 191.29 424.54 191.44C424.74 192.2 423.69 201.76 424.07 202.74C424.45 203.72 424.67 206.84 424.45 208.8C424.23 210.77 420.13 211.97 420.13 210.28C420.13 208.59 420.62 204.6 420.79 203.07C420.96 201.54 419.42 190.48 419.83 188.95C420.1 187.95 421.12 186.26 421.8 185.21C422.16 184.64 422.43 184.26 422.43 184.26C422.49 185.22 426.51 187.86 426.85 187.86C426.85 187.86 425.23 189.67 424.69 190.78H424.7Z" fill="url(#paint6_linear_2448_8320)"/>
<g style="mix-blend-mode:overlay" opacity="0.25">
<path d="M445.18 198.53C443.37 198.4 441.34 197.61 439.93 196.19C438.28 194.54 435.54 193.02 433.08 191.86C433.7 192 434.31 192.17 434.89 192.37C438.07 193.43 444.14 194.77 445.44 194.02C445.73 195.03 445.79 196.22 445.18 198.54V198.53Z" fill="black"/>
</g>
<g style="mix-blend-mode:overlay" opacity="0.25">
<path d="M443.29 204.06C441.97 207.47 439.97 212.11 437.02 218.58C436.95 221.87 435.9 242.84 435.61 247.66C435.57 248.25 435.55 248.6 435.54 248.64C435.5 248.85 434.74 249.26 433.91 249.46C434.1 242.39 433.85 227 435.05 222.42C436.48 216.94 442.89 204.8 443.29 204.05V204.06Z" fill="black"/>
</g>
<g style="mix-blend-mode:overlay" opacity="0.25">
<path d="M436.21 192.77C435.74 192.63 435.29 192.49 434.89 192.36C432.33 191.5 429.14 191.18 427.95 190.85C427.65 190.77 427.48 190.69 427.47 190.6C427.43 190.15 428.58 189.13 429.12 188.06C429.65 186.99 431.45 181.38 430.92 181.67C430.39 181.96 427.23 187.85 426.87 187.85C426.74 187.85 426.11 187.49 425.35 186.98C425.43 186.85 425.52 186.71 425.61 186.57C427.57 183.67 430.8 180.07 431.34 176.96C431.78 174.67 432.43 175.98 432.32 178.93C432.22 181.58 432.08 189.69 436.2 192.78L436.21 192.77Z" fill="black"/>
</g>
<g style="mix-blend-mode:overlay" opacity="0.25">
<path d="M445.46 194C445.46 194 445.46 194 445.44 194C444.75 194.4 442.71 194.21 440.48 193.78C444.48 189.78 442.3 178.93 442.92 179.49C443.66 180.14 445.46 181.04 445.46 181.04C445.54 183.99 446.73 193.21 445.46 193.99V194Z" fill="black"/>
</g>
<g style="mix-blend-mode:overlay" opacity="0.25">
<path d="M426.86 187.85C426.86 187.85 425.24 189.66 424.7 190.77C424.69 190.53 424.67 190.3 424.64 190.1C424.52 188.93 422.69 186.38 421.8 185.2C422.16 184.63 422.43 184.25 422.43 184.25C422.49 185.21 426.51 187.85 426.85 187.85H426.86Z" fill="black"/>
</g>
<g style="mix-blend-mode:overlay" opacity="0.25">
<path d="M437.29 164.05C436.31 166.22 433.41 166.48 432.2 166.48C432.09 166.19 432.01 165.92 431.96 165.71C433.94 165.57 436.51 165.01 437.18 163.93C437.22 163.97 437.25 164.01 437.29 164.05Z" fill="black"/>
</g>
<g style="mix-blend-mode:overlay" opacity="0.25">
<path d="M438.2 169.62C438.02 169.76 437.79 169.87 437.51 169.93C436.19 170.23 435.26 169.97 434.76 169.74C434.65 169.4 434.57 169.19 434.57 169.19C434.62 169.21 434.68 169.24 434.73 169.26C436.31 169.9 437.22 169.03 437.76 168.05C437.59 168.39 438.04 168.82 438.2 169.62Z" fill="black"/>
</g>
<path d="M451.28 0V204.06" stroke="#092533" stroke-width="0.92" stroke-miterlimit="10"/>
<path d="M459.88 179.77C459.88 179.83 459.86 179.88 459.85 179.93C459.31 182.4 457.33 182.66 456.96 182.5C456.59 182.34 455.6 181.21 454.74 177.22C454.72 177.14 454.71 177.06 454.69 176.98C454.69 176.98 452.83 172.22 451.96 169.93C449.8 168.65 449.39 169.17 449.09 167.7C448.79 166.22 449.75 164.32 450.29 164.04C450.84 163.77 453.29 166.06 453.62 166.91C453.95 167.76 460.36 177.15 459.87 179.77H459.88Z" fill="url(#paint7_linear_2448_8320)"/>
<g style="mix-blend-mode:overlay" opacity="0.25">
<path d="M459.85 179.93C459.31 182.4 457.33 182.66 456.96 182.5C456.59 182.34 455.6 181.21 454.74 177.22C455.29 178.33 456.13 179.76 457.05 180.36C458.07 181.01 459.21 180.8 459.85 179.93Z" fill="black"/>
</g>
<path d="M387.46 309L382.19 282.09C378.29 262.19 370.77 247.67 359.64 238.53C348.5 229.4 334.74 226.43 318.36 229.64C301.98 232.85 290.36 240.75 283.52 253.33C276.67 265.92 275.2 282.2 279.11 302.17L284.4 329.18C288.28 349.01 295.79 363.5 306.93 372.63C311.63 376.49 316.81 379.25 322.46 380.9C330.19 383.17 338.8 383.36 348.31 381.51C353.23 380.55 357.73 379.16 361.79 377.34C371.19 373.13 378.28 366.63 383.06 357.84C389.91 345.25 391.38 328.97 387.47 309.01L387.46 309ZM354.57 345.12C352.77 350.64 348.96 353.97 343.14 355.11C337.11 356.29 332.22 354.6 328.44 350.03C325.87 346.92 323.66 342.3 321.84 336.17C321.84 336.17 321.84 336.14 321.84 336.13C320.99 333.29 320.23 330.12 319.55 326.63L312.15 288.85C310.42 278.93 310.41 271.27 312.13 265.87C313.85 260.47 317.66 257.19 323.55 256.05C328.04 255.17 331.92 255.93 335.17 258.32C336.28 259.14 337.32 260.14 338.28 261.34C342.08 266.04 345.02 273.71 347.1 284.34L354.26 320.89C356.27 331.53 356.38 339.61 354.58 345.13L354.57 345.12Z" fill="#FF6643"/>
<g style="mix-blend-mode:overlay" opacity="0.25">
<path d="M357.21 350.17C358.73 352.51 360.75 368.38 361.78 377.34C357.72 379.16 353.22 380.55 348.3 381.51C338.8 383.37 330.18 383.17 322.45 380.9C322.77 380.19 323.06 379.44 323.31 378.68C328.13 363.95 322.11 337.36 321.83 336.16C323.66 342.29 325.86 346.91 328.43 350.02C332.21 354.59 337.11 356.28 343.13 355.1C348.95 353.96 352.76 350.63 354.56 345.11C356.36 339.59 356.26 331.51 354.24 320.87L347.08 284.32C345 273.7 342.06 266.03 338.26 261.32C337.29 260.12 336.26 259.12 335.15 258.3C346.78 260.58 356.22 296.58 360.16 313.94C364.09 331.31 364.42 339.34 357.21 350.15V350.17Z" fill="black"/>
</g>
<path d="M324.4 343.23C324.4 343.23 325.15 345.2 329.11 346.29C333.07 347.38 336.78 341.26 339.41 343.23C342.03 345.2 346.23 353.37 349.92 352.13C353.61 350.89 354.7 370.55 352.96 372.73C351.21 374.91 349.96 357.26 345.34 357.78C340.72 358.31 344.22 371.63 341.6 374.04C338.98 376.45 340.07 368.14 337.23 366.61C334.39 365.08 340.29 433.47 335.92 434.56C331.55 435.65 328.71 431.5 330.46 416.86C332.21 402.22 330.02 351.75 327.4 349.13C324.78 346.51 324.94 346.02 324.41 343.23H324.4Z" fill="#0195FF"/>
<path d="M323.31 0V238.57" stroke="#092533" stroke-width="0.92" stroke-miterlimit="10"/>
<path d="M380.03 146.32C380.03 146.32 376.55 136.77 376.83 136.04C377.12 135.3 380.94 133.91 381.22 134.32C381.5 134.73 383.92 142.14 383.51 142.68C383.1 143.21 380.03 146.33 380.03 146.33V146.32Z" fill="#12006D"/>
<path d="M322.11 133.8C322.11 133.8 324.24 134.68 325.18 136.98C326.12 139.27 325.76 131 325.76 131L324.74 130.06L322.12 133.81L322.11 133.8Z" fill="url(#paint8_linear_2448_8320)"/>
<path d="M321 133.8C321 133.8 323.66 135.79 324.11 135.91C324.56 136.03 325.43 130.83 325.04 130.01C324.65 129.19 323.2 128.37 322.26 128.9C321.32 129.43 320.56 133.47 321 133.79V133.8Z" fill="url(#paint9_linear_2448_8320)"/>
<path d="M328.09 134.39C328.09 134.39 325.97 129.47 325.04 128.61C324.11 127.75 322.39 128.86 322.27 129.31C322.15 129.76 324.33 130.09 325.04 130.83C325.75 131.57 323.83 137.02 325.67 138.94C327.51 140.87 328.09 134.39 328.09 134.39Z" fill="url(#paint10_linear_2448_8320)"/>
<path d="M377.41 147.42C377.41 147.42 379.29 146.4 379.7 145.86C380.11 145.33 379.37 143.32 380.56 141.48C381.75 139.64 384.29 140.17 384.9 142.38C385.51 144.59 383.92 147.38 383.18 148.24C382.44 149.1 377.4 152.71 377.4 152.71" fill="url(#paint11_linear_2448_8320)"/>
<path d="M378.76 151.7C378.7 152.03 378.37 152.59 377.72 153.35C375.33 156.15 368.74 161.62 356.87 167.87C356.64 168.83 356.45 169.8 356.31 170.78C355.87 173.89 355.88 177.04 356.02 179.86C356.06 180.59 356.1 181.29 356.15 181.97C356.37 184.95 356.66 187.41 356.58 188.83C356.54 189.46 356.43 189.88 356.22 190.07C355.95 190.3 355.67 190.52 355.38 190.7C349.45 194.51 338.65 188.82 336.91 187.11C336.77 186.98 336.69 186.87 336.67 186.79C336.37 185.64 337.54 184.41 338.2 182.45C338.31 182.11 338.42 181.36 338.53 180.34C338.84 177.31 339.11 171.89 339.21 167.81C339.27 165.21 339.25 163.15 339.13 162.61V162.59C338.8 161.25 328.86 146.23 325.88 140.9C325.33 139.93 325.02 139.28 325.04 139.1C325.15 137.9 327.44 133.64 327.94 133.69C328.02 133.69 328.33 134.08 328.79 134.72C331.09 137.92 337.29 147.59 338.43 148.82C339.5 149.97 344.93 155.69 347.25 158.14C347.91 158.82 348.32 159.26 348.32 159.26C349.58 159.24 350.84 159.12 352.11 158.92C363.29 157.2 374.27 149.37 377.14 147.2C377.61 146.84 377.87 146.64 377.87 146.64C377.87 146.64 379.02 150.16 378.77 151.69L378.76 151.7Z" fill="#FF7900"/>
<path d="M350.87 164.2C347.06 164.82 347.05 159.86 347.25 158.14C347.91 158.82 348.32 159.26 348.32 159.26C349.58 159.24 350.84 159.12 352.11 158.92C352.58 160.87 352.2 163.99 350.88 164.2H350.87Z" fill="#C64200"/>
<path d="M354.73 153.57C353.99 154.02 353.02 154.17 351.79 153.85C350.84 153.61 349.74 153.09 348.44 152.21C348.44 152.21 347.42 153.44 347.34 155.69C344.64 153.35 343.98 151.02 346.27 150.16C345.33 146.06 347.34 145.2 350.69 145C354.05 144.79 354.83 148.24 356.84 148.15C356.96 149.98 356.44 152.55 354.73 153.56V153.57Z" fill="#12006D"/>
<path d="M354.73 153.57C354.69 153.9 354.64 154.28 354.56 154.69C354.11 157.09 352.93 160.43 351.16 160.24C351.07 160.24 350.97 160.22 350.87 160.18C349.27 159.68 348.31 158.13 347.81 156.99C347.48 156.25 347.34 155.68 347.34 155.68C347.37 154.97 347.49 154.36 347.64 153.85C347.97 152.77 348.44 152.19 348.44 152.19C349.73 153.07 350.84 153.59 351.79 153.83C353.02 154.15 353.99 154 354.73 153.55V153.57Z" fill="url(#paint12_linear_2448_8320)"/>
<path d="M351.16 161.66C351.14 162.53 351.02 163.21 350.44 163.25C349.27 163.33 347.71 161.8 347.79 160.14C347.82 159.57 347.83 158.97 347.83 158.42C347.83 157.87 347.83 157.36 347.81 157C348.31 158.14 349.27 159.69 350.87 160.19C350.97 160.22 351.07 160.24 351.16 160.25C351.16 160.73 351.17 161.22 351.16 161.66Z" fill="url(#paint13_linear_2448_8320)"/>
<path d="M378.76 151.7C378.7 152.03 378.37 152.59 377.72 153.35C377.75 151.4 377.32 148.43 377.14 147.21C377.61 146.85 377.87 146.65 377.87 146.65C377.87 146.65 379.02 150.17 378.77 151.7H378.76Z" fill="#C64200"/>
<path d="M328.78 134.72C327.03 136.21 326.18 139.47 325.88 140.9C325.33 139.93 325.02 139.28 325.04 139.1C325.15 137.9 327.44 133.64 327.94 133.69C328.02 133.69 328.33 134.08 328.79 134.72H328.78Z" fill="#C64200"/>
<path d="M356.16 181.97C352.25 182.54 344.9 183.04 338.54 180.34C338.85 177.31 339.12 171.89 339.22 167.81C342.37 169.14 349.17 171.52 356.31 170.77C355.75 174.68 355.91 178.65 356.16 181.97Z" fill="#FFB000"/>
<g style="mix-blend-mode:overlay" opacity="0.25">
<path d="M355.39 190.7C349 194.8 336.96 187.88 336.68 186.79C336.38 185.64 337.55 184.41 338.21 182.45C338.32 182.11 338.43 181.36 338.54 180.34C338.85 177.31 339.12 171.89 339.22 167.81C339.28 165.21 339.26 163.15 339.14 162.61C339.28 163.03 341.44 169.88 342.55 176.55C343.7 183.43 343.45 186.71 346.81 188.92C348.78 190.21 352.37 190.89 355.39 190.7Z" fill="black"/>
</g>
<path d="M370 209.62C370 212.46 359.73 228.2 357.6 231.43C357.36 231.8 357.22 232.01 357.22 232.01C357.22 232.01 355.9 231.86 354.81 231.49C354.05 231.23 353.4 230.87 353.4 230.37C353.4 230.27 353.42 230.11 353.45 229.91C353.81 227.72 356.07 219.78 358.97 209.29C357.44 207.43 346.74 200.33 346.74 200.33C346.74 200.33 346.74 200.33 346.74 200.36C346.28 201.43 331.41 235.8 329.73 239.01C329.67 239.13 329.63 239.2 329.6 239.23C328.84 240.21 325.67 240.32 325.45 238.25C324.54 229.55 332.03 203.35 335.52 191.76C336.15 189.68 336.64 188.07 336.94 187.12C338.69 188.83 349.48 194.52 355.41 190.71C355.7 190.52 355.98 190.31 356.25 190.08C356.46 189.89 356.57 189.47 356.61 188.84C356.72 188.96 356.84 189.09 356.95 189.23C361.09 193.96 370.02 206.9 370.02 209.63L370 209.62Z" fill="#98C4F9"/>
<path d="M330.75 243.82C330.34 245.87 319.52 251.93 320.51 248.26C321.31 245.29 324.32 240.1 325.42 238.24C325.64 240.32 328.81 240.22 329.57 239.23C329.6 239.2 329.64 239.12 329.7 239.01C330.25 240.59 331.01 242.49 330.75 243.82Z" fill="#12006D"/>
<path d="M361.15 242.02C360.33 242.43 349.68 238.33 349.92 236.94C350.17 235.55 353.44 229.92 353.44 229.92C353.41 230.13 353.39 230.28 353.39 230.38C353.39 231.58 357.21 232.02 357.21 232.02C357.21 232.02 357.35 231.81 357.59 231.44C358.06 235.69 361.91 241.63 361.14 242.02H361.15Z" fill="#12006D"/>
<g style="mix-blend-mode:overlay" opacity="0.25">
<path d="M345.34 199.16C345.34 199.16 333.54 222.33 329.12 238.23" stroke="black" stroke-width="0.46" stroke-miterlimit="10"/>
</g>
<g style="mix-blend-mode:overlay" opacity="0.25">
<path d="M348.12 199.16C348.12 199.16 361.23 207.76 361.72 209.16C362.21 210.56 354.92 229.92 354.92 229.92" stroke="black" stroke-width="0.46" stroke-miterlimit="10"/>
</g>
<g style="mix-blend-mode:overlay" opacity="0.25">
<path d="M356.93 189.22C355.49 194.99 347.13 193.42 342.85 192.31C340.36 191.67 337.51 191.64 335.49 191.75C336.12 189.67 336.61 188.06 336.91 187.11C338.66 188.82 349.45 194.51 355.38 190.7C355.67 190.51 355.95 190.3 356.22 190.07C356.43 189.88 356.54 189.46 356.58 188.83C356.69 188.95 356.81 189.08 356.92 189.22H356.93Z" fill="black"/>
</g>
<g style="mix-blend-mode:overlay" opacity="0.25">
<path d="M354.8 231.5C354.04 231.24 353.39 230.88 353.39 230.38C353.39 230.28 353.41 230.12 353.44 229.92C353.8 227.73 356.06 219.79 358.96 209.3C357.43 207.44 346.73 200.34 346.73 200.34C346.73 200.34 347.6 197.39 348.59 197.17C349.57 196.95 360.93 206.73 362.19 208.75C363.3 210.53 355.56 225.04 354.81 231.5H354.8Z" fill="black"/>
</g>
<g style="mix-blend-mode:overlay" opacity="0.25">
<path d="M354.73 153.57C354.69 153.9 354.64 154.28 354.56 154.69C351.7 156.15 348.89 152.86 348.55 152.91C348.36 152.93 347.96 153.43 347.64 153.87C347.97 152.79 348.44 152.21 348.44 152.21C349.73 153.09 350.84 153.61 351.79 153.85C353.02 154.17 353.99 154.02 354.73 153.57Z" fill="black"/>
</g>
<g style="mix-blend-mode:overlay" opacity="0.25">
<path d="M351.16 161.66C349.27 161.2 348.23 159.31 347.83 158.42C347.83 157.86 347.83 157.36 347.81 157C348.31 158.14 349.27 159.69 350.87 160.19C350.97 160.22 351.07 160.24 351.16 160.25C351.16 160.73 351.17 161.22 351.16 161.66Z" fill="black"/>
</g>
<g style="mix-blend-mode:overlay" opacity="0.25">
<path d="M356.31 170.77C355.87 173.88 355.88 177.03 356.02 179.85C355.28 176.71 354.62 173.34 355.39 171.38C356.7 168.01 356.85 167.86 356.87 167.86C356.64 168.82 356.45 169.79 356.31 170.77Z" fill="black"/>
</g>
<path d="M264.32 202.12L228.95 196.04L228.89 196.36L150.78 284.31L149.17 306.29L160.37 308.22L179.76 311.55L205.79 316.02L208.26 316.44L206.4 327.29L205.54 332.31L202.69 348.88L225.71 352.84L238.06 354.96L243.63 322.53L259.17 325.2L263.86 297.91L248.32 295.24L264.31 202.13L264.32 202.12ZM220.17 247.19L212.96 289.15L204.33 287.67L185.46 284.43L195.91 271.96L198.3 269.11L218.23 245.33L221.05 242.14L220.18 247.2L220.17 247.19Z" fill="#0195FF"/>
<g style="mix-blend-mode:overlay" opacity="0.25">
<path d="M205.79 316.02L179.76 311.55C182.83 301.42 186.65 287.46 185.45 284.43L204.32 287.67C205.53 289.68 206.49 292.46 206.74 296.26C207.2 302.99 206.2 309.86 205.79 316.03V316.02Z" fill="black"/>
</g>
<path d="M186.58 284.62C186.58 284.62 189.42 280.68 195.81 281.91C202.2 283.14 202.69 291.01 199.91 299.69C197.12 308.37 196.47 338.69 197.78 348.52C199.09 358.35 198.27 362.94 195.16 363.27C192.05 363.6 190.57 351.47 192.37 342.95C194.17 334.43 194.01 326.56 191.06 327.87C188.11 329.18 190.57 332.46 189.09 335.41C187.62 338.36 183.19 336.56 183.35 330.99C183.51 325.42 192.42 289.21 186.58 284.62Z" fill="#98C4F9"/>
<g style="mix-blend-mode:overlay" opacity="0.25">
<path d="M248.33 295.23L263.87 297.9L259.18 325.19L243.64 322.53L238.07 354.96L225.72 352.84L247.42 217.41L264.32 202.12L248.33 295.23Z" fill="black"/>
</g>
<path d="M237.76 0V211.09" stroke="#092533" stroke-width="0.92" stroke-miterlimit="10"/>
<path d="M303.63 162.61C303.63 166.14 300.77 169 297.24 169C293.71 169 290.85 166.14 290.85 162.61C290.85 159.08 293.71 156.22 297.24 156.22C300.77 156.22 303.63 159.08 303.63 162.61Z" fill="#FF7900"/>
<path d="M525.99 243.83C525.99 247.36 523.13 250.22 519.6 250.22C516.07 250.22 513.21 247.36 513.21 243.83C513.21 240.3 516.07 237.44 519.6 237.44C523.13 237.44 525.99 240.3 525.99 243.83Z" fill="#6C5BE8"/>
<path d="M191.84 197.16C191.84 200.69 188.98 203.55 185.45 203.55C181.92 203.55 179.06 200.69 179.06 197.16C179.06 193.63 181.92 190.77 185.45 190.77C188.98 190.77 191.84 193.63 191.84 197.16Z" fill="#98C4F9"/>
<path d="M297.24 392.61C297.24 396.14 294.38 399 290.85 399C287.32 399 284.46 396.14 284.46 392.61C284.46 389.08 287.32 386.22 290.85 386.22C294.38 386.22 297.24 389.08 297.24 392.61Z" fill="#FF6643"/>
<path d="M483.07 184.31C484.429 184.31 485.53 183.209 485.53 181.85C485.53 180.492 484.429 179.39 483.07 179.39C481.711 179.39 480.61 180.492 480.61 181.85C480.61 183.209 481.711 184.31 483.07 184.31Z" fill="#FF7900"/>
<path d="M294.78 222.69C296.139 222.69 297.24 221.589 297.24 220.23C297.24 218.871 296.139 217.77 294.78 217.77C293.421 217.77 292.32 218.871 292.32 220.23C292.32 221.589 293.421 222.69 294.78 222.69Z" fill="#98C4F9"/>
<path d="M223.5 186.85C223.5 188.21 222.4 189.31 221.04 189.31C219.68 189.31 218.58 188.21 218.58 186.85C218.58 185.49 219.68 184.39 221.04 184.39C222.4 184.39 223.5 185.49 223.5 186.85Z" fill="#6C5BE8"/>
<path d="M554.51 51.7602C554.51 51.7602 544.66 41.9302 525.99 45.8602C507.32 49.7902 494.2 79.2902 480.6 85.8402C467.01 92.3902 440.2 111.75 438.2 128.29C464.38 106.49 474.21 115.99 491.26 113.37C508.3 110.75 509.61 90.7602 534.19 91.4102C558.77 92.0702 584.99 122.61 609.57 105.53C634.15 88.4602 662.99 68.1402 639.72 51.4202C616.45 34.7102 569.26 60.2702 554.51 51.7502V51.7602Z" fill="url(#paint14_linear_2448_8320)"/>
<path d="M155.66 118.22C155.66 118.22 153.1 131.9 166.87 145.1C180.65 158.3 212.41 152.51 225.49 160.04C238.57 167.57 269.67 178.79 284.46 171.11C251.69 161.78 253.99 148.3 242.22 135.71C230.44 123.11 213.2 133.31 199.88 112.64C186.56 91.9699 197 53.0999 169.04 42.4299C141.08 31.7599 108.03 19.3999 107.35 48.0399C106.67 76.6799 154.39 101.24 155.67 118.22H155.66Z" fill="url(#paint15_linear_2448_8320)"/>
<path d="M631.53 196.64C631.53 196.64 591.55 240.51 583.03 291.94C574.51 343.37 533.52 340.1 519.6 364.35C505.68 388.6 472.51 390.57 457.3 400.4C442.1 410.23 407.46 393.19 401.51 400.4C395.56 407.61 432.58 418.75 480.6 419.41C528.62 420.07 537.8 382.7 580.4 377.46C623.01 372.22 665.61 353.86 680.69 284.38C695.77 214.9 670.2 177.72 631.53 196.64Z" fill="url(#paint16_linear_2448_8320)"/>
<path d="M54.47 214.3C54.47 214.3 94.45 258.17 102.97 309.6C111.49 361.03 152.48 357.76 166.4 382.01C180.32 406.26 213.49 408.23 228.7 418.06C243.9 427.89 278.54 410.85 284.49 418.06C290.44 425.27 253.42 436.41 205.4 437.07C157.38 437.73 148.2 400.36 105.6 395.12C62.99 389.88 20.39 371.52 5.31002 302.04C-9.76998 232.56 15.8 195.38 54.47 214.3Z" fill="url(#paint17_linear_2448_8320)"/>
</g>
<defs>
<linearGradient id="paint0_linear_2448_8320" x1="444.31" y1="268.61" x2="452.18" y2="394.46" gradientUnits="userSpaceOnUse">
<stop stop-color="#FFB000"/>
<stop offset="1" stop-color="#FF7900"/>
</linearGradient>
<linearGradient id="paint1_linear_2448_8320" x1="146.33" y1="234.55" x2="147.23" y2="226.03" gradientUnits="userSpaceOnUse">
<stop stop-color="#FFC5AE"/>
<stop offset="1" stop-color="#EA8B6A"/>
</linearGradient>
<linearGradient id="paint2_linear_2448_8320" x1="157.69" y1="231.7" x2="149.82" y2="232.28" gradientUnits="userSpaceOnUse">
<stop stop-color="#FFC5AE"/>
<stop offset="1" stop-color="#EA8B6A"/>
</linearGradient>
<linearGradient id="paint3_linear_2448_8320" x1="147.39" y1="263.81" x2="154.6" y2="237.92" gradientUnits="userSpaceOnUse">
<stop stop-color="#FFC5AE"/>
<stop offset="1" stop-color="#EA8B6A"/>
</linearGradient>
<linearGradient id="paint4_linear_2448_8320" x1="435.07" y1="168.88" x2="435.39" y2="161.38" gradientUnits="userSpaceOnUse">
<stop stop-color="#FFC5AE"/>
<stop offset="1" stop-color="#EA8B6A"/>
</linearGradient>
<linearGradient id="paint5_linear_2448_8320" x1="436.52" y1="172.07" x2="436.28" y2="166.74" gradientUnits="userSpaceOnUse">
<stop stop-color="#FFC5AE"/>
<stop offset="1" stop-color="#EA8B6A"/>
</linearGradient>
<linearGradient id="paint6_linear_2448_8320" x1="420.09" y1="212.27" x2="425.98" y2="173.92" gradientUnits="userSpaceOnUse">
<stop stop-color="#FFC5AE"/>
<stop offset="1" stop-color="#EA8B6A"/>
</linearGradient>
<linearGradient id="paint7_linear_2448_8320" x1="453.09" y1="166.02" x2="457.68" y2="190.22" gradientUnits="userSpaceOnUse">
<stop stop-color="#FFC5AE"/>
<stop offset="1" stop-color="#EA8B6A"/>
</linearGradient>
<linearGradient id="paint8_linear_2448_8320" x1="322.96" y1="130.32" x2="325.82" y2="136.42" gradientUnits="userSpaceOnUse">
<stop stop-color="#FFC5AE"/>
<stop offset="1" stop-color="#EA8B6A"/>
</linearGradient>
<linearGradient id="paint9_linear_2448_8320" x1="318.61" y1="130.17" x2="325.73" y2="133.16" gradientUnits="userSpaceOnUse">
<stop stop-color="#FFC5AE"/>
<stop offset="1" stop-color="#EA8B6A"/>
</linearGradient>
<linearGradient id="paint10_linear_2448_8320" x1="322.7" y1="127.88" x2="327.29" y2="137.63" gradientUnits="userSpaceOnUse">
<stop stop-color="#FFC5AE"/>
<stop offset="1" stop-color="#EA8B6A"/>
</linearGradient>
<linearGradient id="paint11_linear_2448_8320" x1="388.03" y1="137.53" x2="375" y2="153.01" gradientUnits="userSpaceOnUse">
<stop stop-color="#FFC5AE"/>
<stop offset="1" stop-color="#EA8B6A"/>
</linearGradient>
<linearGradient id="paint12_linear_2448_8320" x1="351.6" y1="161.13" x2="350.2" y2="144.91" gradientUnits="userSpaceOnUse">
<stop stop-color="#FFC5AE"/>
<stop offset="1" stop-color="#EA8B6A"/>
</linearGradient>
<linearGradient id="paint13_linear_2448_8320" x1="349.21" y1="161.26" x2="349.87" y2="157.08" gradientUnits="userSpaceOnUse">
<stop stop-color="#FFC5AE"/>
<stop offset="1" stop-color="#EA8B6A"/>
</linearGradient>
<linearGradient id="paint14_linear_2448_8320" x1="590.27" y1="71.5902" x2="369.38" y2="122.71" gradientUnits="userSpaceOnUse">
<stop stop-color="white" stop-opacity="0"/>
<stop offset="1" stop-color="#98C4F9"/>
</linearGradient>
<linearGradient id="paint15_linear_2448_8320" x1="151.957" y1="77.4707" x2="318.759" y2="231.055" gradientUnits="userSpaceOnUse">
<stop stop-color="white" stop-opacity="0"/>
<stop offset="1" stop-color="#98C4F9"/>
</linearGradient>
<linearGradient id="paint16_linear_2448_8320" x1="613.25" y1="295.29" x2="296.17" y2="368.67" gradientUnits="userSpaceOnUse">
<stop stop-color="white" stop-opacity="0"/>
<stop offset="1" stop-color="#98C4F9"/>
</linearGradient>
<linearGradient id="paint17_linear_2448_8320" x1="72.75" y1="312.95" x2="389.83" y2="386.34" gradientUnits="userSpaceOnUse">
<stop stop-color="white" stop-opacity="0"/>
<stop offset="1" stop-color="#98C4F9"/>
</linearGradient>
<clipPath id="clip0_2448_8320">
<rect width="684.16" height="437.08" fill="white" transform="translate(0.920044)"/>
</clipPath>
</defs>
</svg>
