<svg width="111" height="28" viewBox="0 0 111 28" fill="none" xmlns="http://www.w3.org/2000/svg">
<rect y="0.5" width="111" height="27" rx="8" fill="#017AFD"/>
<path d="M27.4999 20V14M27.4999 10.6667H24.7999C22.9532 10.6667 22.8399 8 24.7999 8C26.8999 8 27.4999 10.6667 27.4999 10.6667ZM27.4999 10.6667H30.1999C32.1306 10.6667 32.1306 8 30.1999 8C28.0999 8 27.4999 10.6667 27.4999 10.6667Z" stroke="white" stroke-width="1.5" stroke-linecap="round" stroke-linejoin="round"/>
<path d="M32.8333 14.0003V18.667C32.8333 19.0206 32.6929 19.3598 32.4428 19.6098C32.1928 19.8598 31.8536 20.0003 31.5 20.0003H23.5C23.1464 20.0003 22.8072 19.8598 22.5572 19.6098C22.3071 19.3598 22.1667 19.0206 22.1667 18.667V14.0003M33.5 14.0003V12.0003C33.5 11.6467 33.3595 11.3076 33.1095 11.0575C32.8594 10.8075 32.5203 10.667 32.1667 10.667H22.8333C22.4797 10.667 22.1406 10.8075 21.8905 11.0575C21.6405 11.3076 21.5 11.6467 21.5 12.0003V14.0003H33.5Z" stroke="white" stroke-width="1.5" stroke-linecap="round" stroke-linejoin="round"/>
<path d="M41.8608 10.43V13.1H45.3108V14.3H41.8608V18.5H40.4508V9.2H45.6408V10.43H41.8608ZM48.8452 12.02C49.3052 11.92 49.7452 11.87 50.1652 11.87C50.9252 11.87 51.4852 11.99 51.8452 12.23L51.0052 13.28C50.7252 13.2 50.3052 13.16 49.7452 13.16C49.3652 13.16 49.0652 13.2 48.8452 13.28V18.5H47.4352V12.5C47.4352 12.26 47.5452 12.09 47.7652 11.99L48.8452 11.6V12.02ZM58.0814 17.84C57.7614 18.04 57.3614 18.2 56.8814 18.32C56.4214 18.44 55.9414 18.5 55.4414 18.5C54.3214 18.5 53.4414 18.2 52.8014 17.6C52.1614 16.98 51.8414 16.12 51.8414 15.02C51.8414 13.96 52.1314 13.12 52.7114 12.5C53.3114 11.88 54.1114 11.57 55.1114 11.57C56.1714 11.57 56.9614 11.88 57.4814 12.5C58.0214 13.1 58.2614 13.96 58.2014 15.08L53.1914 15.65C53.4114 16.75 54.1714 17.3 55.4714 17.3C56.3914 17.3 57.0514 17.15 57.4514 16.85L58.0814 17.84ZM55.0814 12.89C54.5414 12.89 54.1114 13.02 53.7914 13.28C53.4714 13.54 53.2714 13.9 53.1914 14.36L56.7914 13.97C56.6714 13.25 56.1014 12.89 55.0814 12.89ZM65.0423 17.84C64.7223 18.04 64.3223 18.2 63.8423 18.32C63.3823 18.44 62.9023 18.5 62.4023 18.5C61.2823 18.5 60.4023 18.2 59.7623 17.6C59.1223 16.98 58.8023 16.12 58.8023 15.02C58.8023 13.96 59.0923 13.12 59.6723 12.5C60.2723 11.88 61.0723 11.57 62.0723 11.57C63.1323 11.57 63.9223 11.88 64.4423 12.5C64.9823 13.1 65.2223 13.96 65.1623 15.08L60.1523 15.65C60.3723 16.75 61.1323 17.3 62.4323 17.3C63.3523 17.3 64.0123 17.15 64.4123 16.85L65.0423 17.84ZM62.0423 12.89C61.5023 12.89 61.0723 13.02 60.7523 13.28C60.4323 13.54 60.2323 13.9 60.1523 14.36L63.7523 13.97C63.6323 13.25 63.0623 12.89 62.0423 12.89ZM73.8562 13.43C73.9762 13.21 74.1762 13.1 74.4562 13.1H77.0963V17.9C76.7962 18.1 76.3862 18.25 75.8662 18.35C75.3662 18.45 74.8362 18.5 74.2762 18.5C72.9162 18.5 71.8263 18.08 71.0062 17.24C70.2062 16.38 69.8062 15.25 69.8062 13.85C69.8062 12.43 70.2162 11.3 71.0362 10.46C71.8562 9.6 72.9362 9.17 74.2762 9.17C75.2562 9.17 76.1462 9.39 76.9462 9.83L76.4662 10.97C76.2662 10.79 75.9662 10.65 75.5663 10.55C75.1662 10.43 74.7362 10.37 74.2762 10.37C73.3362 10.37 72.5962 10.68 72.0562 11.3C71.5362 11.9 71.2762 12.75 71.2762 13.85C71.2762 14.91 71.5462 15.75 72.0862 16.37C72.6262 16.99 73.3562 17.3 74.2762 17.3C74.7962 17.3 75.2562 17.25 75.6562 17.15V14.3H73.3763L73.8562 13.43ZM79.14 11C79.06 11 79.02 10.98 79.02 10.94V9.68C79.02 9.64 79.06 9.62 79.14 9.62H80.37C80.41 9.62 80.43 9.64 80.43 9.68V10.94C80.43 10.98 80.41 11 80.37 11H79.14ZM79.02 12.41C79.02 12.29 79.05 12.18 79.11 12.08C79.19 11.98 79.29 11.92 79.41 11.9L80.43 11.6V18.5H79.02V12.41ZM82.8258 11.39C82.8258 10.65 83.0558 10.07 83.5158 9.65C83.9758 9.23 84.5858 9.02 85.3458 9.02H85.8258V10.16H85.3758C85.0358 10.16 84.7558 10.26 84.5358 10.46C84.3358 10.66 84.2358 10.93 84.2358 11.27V12.5H85.8258V13.64H84.2358V18.5H82.8258V11.39ZM89.0105 13.64V16.58C89.0105 16.8 89.0905 16.98 89.2505 17.12C89.4305 17.24 89.6505 17.3 89.9105 17.3H90.1205L90.3305 18.44C90.1305 18.48 89.9405 18.5 89.7605 18.5C89.1205 18.5 88.6005 18.32 88.2005 17.96C87.8205 17.6 87.6305 17.12 87.6305 16.52V10.67C87.6305 10.51 87.7005 10.36 87.8405 10.22L89.0105 9.68V12.5H90.6305V13.64H89.0105Z" fill="white"/>
</svg>
