<svg width="37" height="25" viewBox="0 0 37 25" fill="none" xmlns="http://www.w3.org/2000/svg">
<rect x="1.31825" y="0.389108" width="35.0197" height="24.1247" rx="4.28018" fill="white"/>
<rect x="1.31825" y="0.389108" width="35.0197" height="24.1247" rx="4.28018" stroke="#F2F4F7" stroke-width="0.778215"/>
<path fill-rule="evenodd" clip-rule="evenodd" d="M12.0838 16.4548H9.94659L8.34393 10.1608C8.26786 9.87124 8.10635 9.61528 7.86876 9.49464C7.27584 9.19148 6.62248 8.95021 5.90972 8.82852V8.5862H9.35263C9.8278 8.5862 10.1842 8.95021 10.2436 9.37296L11.0751 13.9131L13.2113 8.5862H15.2891L12.0838 16.4548ZM16.4771 16.4548H14.4586L16.1207 8.5862H18.1391L16.4771 16.4548ZM20.7505 10.7661C20.8099 10.3422 21.1663 10.0999 21.582 10.0999C22.2354 10.0391 22.9471 10.1608 23.5411 10.4629L23.8975 8.76873C23.3035 8.52641 22.6501 8.40472 22.0572 8.40472C20.0982 8.40472 18.6727 9.49465 18.6727 11.0073C18.6727 12.1581 19.6824 12.7623 20.3952 13.1263C21.1663 13.4893 21.4633 13.7316 21.4039 14.0946C21.4039 14.639 20.8099 14.8813 20.217 14.8813C19.5042 14.8813 18.7915 14.6998 18.1391 14.3967L17.7828 16.0919C18.4955 16.394 19.2666 16.5157 19.9794 16.5157C22.176 16.5755 23.5411 15.4866 23.5411 13.8522C23.5411 11.7941 20.7505 11.6734 20.7505 10.7661ZM30.6051 16.4548L29.0024 8.5862H27.281C26.9246 8.5862 26.5682 8.82852 26.4494 9.19148L23.4817 16.4548H25.5595L25.9742 15.3051H28.5273L28.7648 16.4548H30.6051ZM27.578 10.7052L28.1709 13.6708H26.5088L27.578 10.7052Z" fill="#172B85"/>
</svg>
