<svg width="36" height="25" viewBox="0 0 36 25" fill="none" xmlns="http://www.w3.org/2000/svg">
<rect x="0.591195" y="0.389108" width="35.0197" height="24.1247" rx="4.28018" fill="white"/>
<rect x="0.591195" y="0.389108" width="35.0197" height="24.1247" rx="4.28018" stroke="#F2F4F7" stroke-width="0.778215"/>
<path fill-rule="evenodd" clip-rule="evenodd" d="M18.0273 17.4626C16.7987 18.4982 15.2051 19.1233 13.4636 19.1233C9.57783 19.1233 6.42781 16.0108 6.42781 12.1713C6.42781 8.33175 9.57783 5.21921 13.4636 5.21921C15.2051 5.21921 16.7987 5.84437 18.0273 6.87996C19.2559 5.84437 20.8496 5.21921 22.5911 5.21921C26.4768 5.21921 29.6269 8.33175 29.6269 12.1713C29.6269 16.0108 26.4768 19.1233 22.5911 19.1233C20.8496 19.1233 19.2559 18.4982 18.0273 17.4626Z" fill="#ED0006"/>
<path fill-rule="evenodd" clip-rule="evenodd" d="M18.0273 17.4626C19.5401 16.1874 20.4994 14.29 20.4994 12.1713C20.4994 10.0525 19.5401 8.15509 18.0273 6.87996C19.2559 5.84437 20.8496 5.21921 22.5911 5.21921C26.4768 5.21921 29.6269 8.33175 29.6269 12.1713C29.6269 16.0108 26.4768 19.1233 22.5911 19.1233C20.8496 19.1233 19.2559 18.4982 18.0273 17.4626Z" fill="#F9A000"/>
<path fill-rule="evenodd" clip-rule="evenodd" d="M18.0274 17.4626C19.5401 16.1874 20.4994 14.29 20.4994 12.1713C20.4994 10.0525 19.5401 8.15514 18.0274 6.88C16.5146 8.15514 15.5554 10.0525 15.5554 12.1713C15.5554 14.29 16.5146 16.1874 18.0274 17.4626Z" fill="#FF5E00"/>
</svg>
