<svg width="36" height="25" viewBox="0 0 36 25" fill="none" xmlns="http://www.w3.org/2000/svg">
<rect x="0.45472" y="0.389108" width="35.0197" height="24.1247" rx="2.72375" fill="white"/>
<rect x="0.45472" y="0.389108" width="35.0197" height="24.1247" rx="2.72375" stroke="#F2F4F7" stroke-width="0.778215"/>
<path fill-rule="evenodd" clip-rule="evenodd" d="M19.021 8.44824L17.2289 8.84416V7.34846L19.021 6.95987V8.44824ZM22.7479 9.27673C22.0482 9.27673 21.5984 9.614 21.3485 9.84862L21.2557 9.39404H19.6849V17.943L21.4699 17.5544L21.477 15.4795C21.734 15.6701 22.1124 15.9414 22.7407 15.9414C24.0188 15.9414 25.1826 14.8856 25.1826 12.5614C25.1754 10.4352 23.9974 9.27673 22.7479 9.27673ZM22.3195 14.3284C21.8982 14.3284 21.6483 14.1744 21.477 13.9838L21.4698 11.2637C21.6555 11.051 21.9125 10.9044 22.3195 10.9044C22.9692 10.9044 23.419 11.6523 23.419 12.6127C23.419 13.5952 22.9764 14.3284 22.3195 14.3284ZM30.8088 12.6347C30.8088 10.7578 29.9235 9.27673 28.2313 9.27673C26.5321 9.27673 25.5039 10.7578 25.5039 12.6201C25.5039 14.827 26.7177 15.9414 28.4598 15.9414C29.3095 15.9414 29.952 15.7434 30.4376 15.4648V13.9985C29.952 14.2477 29.3951 14.4017 28.6883 14.4017C27.9957 14.4017 27.3817 14.1524 27.3032 13.2873H30.7945C30.7945 13.2471 30.7971 13.156 30.8 13.0509L30.8001 13.0496L30.8001 13.0493C30.8041 12.9056 30.8088 12.7361 30.8088 12.6347ZM27.2817 11.9382C27.2817 11.1097 27.7744 10.7651 28.2242 10.7651C28.6597 10.7651 29.1238 11.1097 29.1238 11.9382H27.2817ZM17.2288 9.40139H19.0209V15.8168H17.2288V9.40139ZM15.1941 9.40138L15.3083 9.94394C15.7296 9.1521 16.5649 9.3134 16.7934 9.40138V11.0877C16.5721 11.0071 15.8581 10.9044 15.4369 11.469V15.8168H13.6519V9.40138H15.1941ZM11.7383 7.81036L9.99619 8.19161L9.98905 14.0644C9.98905 15.1495 10.7816 15.9487 11.8383 15.9487C12.4237 15.9487 12.8521 15.8387 13.0877 15.7068V14.2184C12.8593 14.3137 11.7312 14.651 11.7312 13.5659V10.9631H13.0877V9.40137H11.7312L11.7383 7.81036ZM7.51876 10.8678C7.14035 10.8678 6.91187 10.9777 6.91187 11.2637C6.91187 11.5759 7.30508 11.7132 7.7929 11.8836C8.58816 12.1614 9.63487 12.5269 9.63929 13.8812C9.63929 15.1936 8.61829 15.9487 7.13321 15.9487C6.51918 15.9487 5.84803 15.8241 5.18403 15.5308V13.7858C5.78377 14.1231 6.5406 14.3724 7.13321 14.3724C7.53304 14.3724 7.81863 14.2624 7.81863 13.9252C7.81863 13.5793 7.39238 13.4213 6.87779 13.2304C6.09409 12.9398 5.10549 12.5732 5.10549 11.3517C5.10549 10.0539 6.06937 9.27675 7.51876 9.27675C8.11136 9.27675 8.69683 9.37206 9.28944 9.61401V11.337C8.74681 11.0364 8.06139 10.8678 7.51876 10.8678Z" fill="#6461FC"/>
</svg>
