<svg width="14" height="15" viewBox="0 0 14 15" fill="none" xmlns="http://www.w3.org/2000/svg">
<path d="M9.91666 12.3701H4.08332C1.74999 12.3701 1.16666 11.7868 1.16666 9.45345V4.78678C1.16666 2.45345 1.74999 1.87012 4.08332 1.87012H9.91666C12.25 1.87012 12.8333 2.45345 12.8333 4.78678V9.45345C12.8333 11.7868 12.25 12.3701 9.91666 12.3701Z" stroke="#353637" stroke-width="1.5" stroke-linecap="round" stroke-linejoin="round"/>
<path d="M8.16666 4.78711H11.0833" stroke="#353637" stroke-width="1.5" stroke-linecap="round" stroke-linejoin="round"/>
<path d="M8.75 7.12012H11.0833" stroke="#353637" stroke-width="1.5" stroke-linecap="round" stroke-linejoin="round"/>
<path d="M9.91666 9.45312H11.0833" stroke="#353637" stroke-width="1.5" stroke-linecap="round" stroke-linejoin="round"/>
<path d="M4.95833 6.70639C5.54145 6.70639 6.01416 6.23368 6.01416 5.65056C6.01416 5.06744 5.54145 4.59473 4.95833 4.59473C4.37521 4.59473 3.9025 5.06744 3.9025 5.65056C3.9025 6.23368 4.37521 6.70639 4.95833 6.70639Z" stroke="#353637" stroke-width="1.5" stroke-linecap="round" stroke-linejoin="round"/>
<path d="M6.99999 9.64565C6.91832 8.79982 6.24749 8.13482 5.40166 8.05898C5.10999 8.02982 4.81249 8.02982 4.51499 8.05898C3.66916 8.14065 2.99832 8.79982 2.91666 9.64565" stroke="#353637" stroke-width="1.5" stroke-linecap="round" stroke-linejoin="round"/>
</svg>
