<svg width="13" height="14" viewBox="0 0 13 14" fill="none" xmlns="http://www.w3.org/2000/svg">
<path d="M12.2007 9.8041V0.653607C12.2007 0.2914 11.9093 0 11.5471 0H2.61443C1.17105 0 0 1.17105 0 2.61443V11.3292C0 12.7726 1.17105 13.9436 2.61443 13.9436H11.5471C11.9093 13.9436 12.2007 13.6522 12.2007 13.29V12.8543C12.2007 12.65 12.1053 12.4648 11.9583 12.345C11.8439 11.9256 11.8439 10.73 11.9583 10.3106C12.1053 10.1935 12.2007 10.0084 12.2007 9.8041ZM3.4859 3.64931C3.4859 3.55943 3.55943 3.4859 3.64931 3.4859H9.42283C9.5127 3.4859 9.58624 3.55943 9.58624 3.64931V4.19398C9.58624 4.28385 9.5127 4.35738 9.42283 4.35738H3.64931C3.55943 4.35738 3.4859 4.28385 3.4859 4.19398V3.64931ZM3.4859 5.39226C3.4859 5.30239 3.55943 5.22886 3.64931 5.22886H9.42283C9.5127 5.22886 9.58624 5.30239 9.58624 5.39226V5.93693C9.58624 6.0268 9.5127 6.10033 9.42283 6.10033H3.64931C3.55943 6.10033 3.4859 6.0268 3.4859 5.93693V5.39226ZM10.3869 12.2007H2.61443C2.13239 12.2007 1.74295 11.8112 1.74295 11.3292C1.74295 10.8499 2.13512 10.4577 2.61443 10.4577H10.3869C10.3352 10.9234 10.3352 11.735 10.3869 12.2007Z" fill="#F9F9F9" fill-opacity="0.86"/>
</svg>
