<svg width="9" height="10" viewBox="0 0 9 10" fill="none" xmlns="http://www.w3.org/2000/svg">
<path opacity="0.2" d="M8.13143 6.11275C8.08399 6.15456 7.90486 6.33337 7.73799 6.48045C6.75971 7.40547 4.20766 8.91955 2.87193 9.3817C2.66907 9.45596 2.15621 9.61314 1.88219 9.62323C1.61962 9.62323 1.36933 9.57132 1.13048 9.46605C0.832743 9.31897 0.593898 9.08754 0.463023 8.81428C0.378773 8.62466 0.247899 8.05725 0.247899 8.04715C0.117025 7.42638 0.0450441 6.41772 0.0450441 5.30308C0.0450442 4.24106 0.117025 3.2735 0.224178 2.64336C0.236448 2.63326 0.367322 1.92814 0.510466 1.68661C0.773032 1.24536 1.2859 0.971388 1.83475 0.971388L1.88219 0.971388C2.23964 0.982203 2.99135 1.25618 2.99135 1.26627C4.2551 1.72915 6.74826 3.16896 7.75026 4.12571C7.75026 4.12571 8.03246 4.37156 8.15515 4.52513C8.34656 4.74575 8.44144 5.01901 8.44144 5.29226C8.44144 5.59724 8.33429 5.88131 8.13143 6.11275Z" fill="#373737"/>
</svg>
