<svg width="9" height="10" viewBox="0 0 9 10" fill="none" xmlns="http://www.w3.org/2000/svg">
<path opacity="0.2" d="M0.463172 4.48186C0.510614 4.44004 0.689748 4.26124 0.856612 4.11416C1.8349 3.18913 4.38694 1.67506 5.72268 1.2129C5.92553 1.13864 6.4384 0.981468 6.71241 0.971374C6.97498 0.971374 7.22528 1.02329 7.46412 1.12855C7.76186 1.27563 8.00071 1.50707 8.13158 1.78032C8.21583 1.96994 8.34671 2.53736 8.34671 2.54745C8.47758 3.16822 8.54956 4.17688 8.54956 5.29153C8.54956 6.35354 8.47758 7.32111 8.37043 7.95125C8.35816 7.96134 8.22728 8.66647 8.08414 8.908C7.82157 9.34924 7.30871 9.62322 6.75986 9.62322L6.71241 9.62322C6.35496 9.6124 5.60326 9.33843 5.60326 9.32833C4.3395 8.86546 1.84635 7.42565 0.844343 6.4689C0.844343 6.4689 0.562145 6.22304 0.439451 6.06947C0.248048 5.84885 0.153164 5.5756 0.153164 5.30234C0.153164 4.99736 0.260317 4.7133 0.463172 4.48186Z" fill="#373737"/>
</svg>
