<svg width="16" height="15" viewBox="0 0 16 15" fill="none" xmlns="http://www.w3.org/2000/svg">
<g id="vector">
<g id="vector_2">
<path id="Vector" d="M13.0449 9.05625L12.4199 8.01875C12.2887 7.7875 12.1699 7.35 12.1699 7.09375V5.5125C12.1699 4.04375 11.3074 2.775 10.0637 2.18125C9.73867 1.60625 9.13867 1.25 8.45117 1.25C7.76992 1.25 7.15742 1.61875 6.83242 2.2C5.61367 2.80625 4.76992 4.0625 4.76992 5.5125V7.09375C4.76992 7.35 4.65117 7.7875 4.51992 8.0125L3.88867 9.05625C3.63867 9.475 3.58242 9.9375 3.73867 10.3625C3.88867 10.7812 4.24492 11.1063 4.70742 11.2625C5.91992 11.675 7.19492 11.875 8.46992 11.875C9.74492 11.875 11.0199 11.675 12.2324 11.2688C12.6699 11.125 13.0074 10.7937 13.1699 10.3625C13.3324 9.93125 13.2887 9.45625 13.0449 9.05625Z" fill="url(#paint0_linear_4_450)"/>
<path id="Vector_2" d="M10.2263 12.5063C9.96382 13.2313 9.27007 13.75 8.45757 13.75C7.96382 13.75 7.47632 13.55 7.13257 13.1938C6.93257 13.0063 6.78257 12.7562 6.69507 12.5C6.77632 12.5125 6.85757 12.5187 6.94507 12.5312C7.08882 12.55 7.23882 12.5687 7.38882 12.5812C7.74507 12.6125 8.10757 12.6312 8.47007 12.6312C8.82632 12.6312 9.18257 12.6125 9.53257 12.5812C9.66382 12.5687 9.79507 12.5625 9.92007 12.5437C10.0201 12.5312 10.1201 12.5188 10.2263 12.5063Z" fill="url(#paint1_linear_4_450)"/>
</g>
</g>
<defs>
<linearGradient id="paint0_linear_4_450" x1="8.45894" y1="1.25" x2="8.45894" y2="11.875" gradientUnits="userSpaceOnUse">
<stop stop-color="#0573F6"/>
<stop offset="1" stop-color="#2983EE"/>
</linearGradient>
<linearGradient id="paint1_linear_4_450" x1="8.46069" y1="12.5" x2="8.46069" y2="13.75" gradientUnits="userSpaceOnUse">
<stop stop-color="#0573F6"/>
<stop offset="1" stop-color="#2983EE"/>
</linearGradient>
</defs>
</svg>
