<svg width="13" height="15" viewBox="0 0 13 15" fill="none" xmlns="http://www.w3.org/2000/svg">
<path d="M9.31953 2.49549V1.44746C9.31953 1.17202 9.08909 0.943604 8.8112 0.943604C8.53331 0.943604 8.30287 1.17202 8.30287 1.44746V2.45518H3.89733V1.44746C3.89733 1.17202 3.66689 0.943604 3.389 0.943604C3.11111 0.943604 2.88066 1.17202 2.88066 1.44746V2.49549C1.05066 2.66345 0.162775 3.74507 0.027219 5.3507C0.0136634 5.54553 0.17633 5.70676 0.366108 5.70676H11.8341C12.0306 5.70676 12.1933 5.53881 12.173 5.3507C12.0374 3.74507 11.1495 2.66345 9.31953 2.49549Z" fill="#F9F9F9" fill-opacity="0.86"/>
<path d="M11.5222 6.71448H0.677778C0.305 6.71448 0 7.01677 0 7.38626V11.5246C0 13.5401 1.01667 14.8837 3.38889 14.8837H8.81111C11.1833 14.8837 12.2 13.5401 12.2 11.5246V7.38626C12.2 7.01677 11.895 6.71448 11.5222 6.71448ZM4.209 12.3375C4.17511 12.3644 4.14122 12.398 4.10733 12.4181C4.06667 12.445 4.026 12.4652 3.98533 12.4786C3.94467 12.4988 3.904 12.5122 3.86333 12.5189C3.81589 12.5256 3.77522 12.5324 3.72778 12.5324C3.63967 12.5324 3.55156 12.5122 3.47022 12.4786C3.38211 12.445 3.31433 12.398 3.24656 12.3375C3.12456 12.2099 3.05 12.0352 3.05 11.8605C3.05 11.6859 3.12456 11.5112 3.24656 11.3836C3.31433 11.3231 3.38211 11.2761 3.47022 11.2425C3.59222 11.1887 3.72778 11.1753 3.86333 11.2022C3.904 11.2089 3.94467 11.2223 3.98533 11.2425C4.026 11.2559 4.06667 11.2761 4.10733 11.3029C4.14122 11.3298 4.17511 11.3567 4.209 11.3836C4.331 11.5112 4.40556 11.6859 4.40556 11.8605C4.40556 12.0352 4.331 12.2099 4.209 12.3375ZM4.209 9.98618C4.08022 10.1071 3.904 10.181 3.72778 10.181C3.55156 10.181 3.37533 10.1071 3.24656 9.98618C3.12456 9.85854 3.05 9.68387 3.05 9.5092C3.05 9.33452 3.12456 9.15985 3.24656 9.03221C3.43633 8.8441 3.73456 8.78364 3.98533 8.89113C4.07344 8.92472 4.148 8.97174 4.209 9.03221C4.331 9.15985 4.40556 9.33452 4.40556 9.5092C4.40556 9.68387 4.331 9.85854 4.209 9.98618ZM6.58122 12.3375C6.45244 12.4585 6.27622 12.5324 6.1 12.5324C5.92378 12.5324 5.74756 12.4585 5.61878 12.3375C5.49678 12.2099 5.42222 12.0352 5.42222 11.8605C5.42222 11.6859 5.49678 11.5112 5.61878 11.3836C5.86956 11.135 6.33044 11.135 6.58122 11.3836C6.70322 11.5112 6.77778 11.6859 6.77778 11.8605C6.77778 12.0352 6.70322 12.2099 6.58122 12.3375ZM6.58122 9.98618C6.54733 10.0131 6.51344 10.0399 6.47956 10.0668C6.43889 10.0937 6.39822 10.1138 6.35756 10.1273C6.31689 10.1474 6.27622 10.1609 6.23556 10.1676C6.18811 10.1743 6.14744 10.181 6.1 10.181C5.92378 10.181 5.74756 10.1071 5.61878 9.98618C5.49678 9.85854 5.42222 9.68387 5.42222 9.5092C5.42222 9.33452 5.49678 9.15985 5.61878 9.03221C5.67978 8.97174 5.75433 8.92472 5.84244 8.89113C6.09322 8.78364 6.39144 8.8441 6.58122 9.03221C6.70322 9.15985 6.77778 9.33452 6.77778 9.5092C6.77778 9.68387 6.70322 9.85854 6.58122 9.98618ZM8.95344 12.3375C8.82467 12.4585 8.64844 12.5324 8.47222 12.5324C8.296 12.5324 8.11978 12.4585 7.991 12.3375C7.869 12.2099 7.79444 12.0352 7.79444 11.8605C7.79444 11.6859 7.869 11.5112 7.991 11.3836C8.24178 11.135 8.70267 11.135 8.95344 11.3836C9.07544 11.5112 9.15 11.6859 9.15 11.8605C9.15 12.0352 9.07544 12.2099 8.95344 12.3375ZM8.95344 9.98618C8.91955 10.0131 8.88567 10.0399 8.85178 10.0668C8.81111 10.0937 8.77044 10.1138 8.72978 10.1273C8.68911 10.1474 8.64844 10.1609 8.60778 10.1676C8.56033 10.1743 8.51289 10.181 8.47222 10.181C8.296 10.181 8.11978 10.1071 7.991 9.98618C7.869 9.85854 7.79444 9.68387 7.79444 9.5092C7.79444 9.33452 7.869 9.15985 7.991 9.03221C8.05878 8.97174 8.12656 8.92472 8.21467 8.89113C8.33667 8.83738 8.47222 8.82395 8.60778 8.85082C8.64844 8.85754 8.68911 8.87097 8.72978 8.89113C8.77044 8.90456 8.81111 8.92472 8.85178 8.95159L8.95344 9.03221C9.07544 9.15985 9.15 9.33452 9.15 9.5092C9.15 9.68387 9.07544 9.85854 8.95344 9.98618Z" fill="#F9F9F9" fill-opacity="0.86"/>
</svg>
