<svg width="14" height="15" viewBox="0 0 14 15" fill="none" xmlns="http://www.w3.org/2000/svg">
<path opacity="0.4" d="M6.41675 1.31641H5.25008C2.33341 1.31641 1.16675 2.48307 1.16675 5.39974V8.89974C1.16675 11.8164 2.33341 12.9831 5.25008 12.9831H8.75008C11.6667 12.9831 12.8334 11.8164 12.8334 8.89974V7.73307" stroke="#292D32" stroke-width="1.5" stroke-linecap="round" stroke-linejoin="round"/>
<path d="M9.3566 1.91147L4.75993 6.50814C4.58493 6.68314 4.40993 7.02731 4.37493 7.27814L4.1241 9.03397C4.03076 9.66981 4.47993 10.1131 5.11576 10.0256L6.8716 9.77481C7.1166 9.73981 7.46076 9.56481 7.6416 9.38981L12.2383 4.79314C13.0316 3.99981 13.4049 3.07814 12.2383 1.91147C11.0716 0.744806 10.1499 1.11814 9.3566 1.91147Z" fill="#353535" stroke="#292D32" stroke-width="1.5" stroke-miterlimit="10" stroke-linecap="round" stroke-linejoin="round"/>
<g opacity="0.4">
<path d="M8.69751 2.5708C9.08834 3.96497 10.1792 5.0558 11.5792 5.45247L8.69751 2.5708Z" fill="#353535"/>
<path d="M8.69751 2.5708C9.08834 3.96497 10.1792 5.0558 11.5792 5.45247" stroke="#292D32" stroke-width="1.5" stroke-miterlimit="10" stroke-linecap="round" stroke-linejoin="round"/>
</g>
</svg>
