<svg width="24" height="24" viewBox="0 0 24 24" fill="none" xmlns="http://www.w3.org/2000/svg">
<g id="vuesax/bulk/eye-slash">
<g id="eye-slash">
<path id="Vector" opacity="0.4" d="M21.25 9.15004C20.76 8.37004 20.2 7.67004 19.62 7.04004L15.85 10.81C15.97 11.18 16.04 11.58 16.04 12C16.04 14.24 14.23 16.04 12 16.04C11.58 16.04 11.18 15.97 10.81 15.85L7.34998 19.31C8.80998 20.13 10.39 20.56 12 20.56C13.78 20.56 15.51 20.04 17.09 19.07C18.67 18.09 20.09 16.66 21.25 14.84C22.25 13.28 22.25 10.72 21.25 9.15004Z" fill="#292D32"/>
<path id="Vector_2" d="M14.02 9.97965L9.98001 14.0196C9.47001 13.4996 9.14001 12.7796 9.14001 11.9996C9.14001 10.4296 10.42 9.13965 12 9.13965C12.78 9.13965 13.5 9.46965 14.02 9.97965Z" fill="#292D32"/>
<path id="Vector_3" opacity="0.4" d="M18.25 5.74969L14.86 9.13969C14.13 8.39969 13.12 7.95969 12 7.95969C9.76 7.95969 7.96 9.76969 7.96 11.9997C7.96 13.1197 8.41 14.1297 9.14 14.8597L5.76 18.2497H5.75C4.64 17.3497 3.62 16.1997 2.75 14.8397C1.75 13.2697 1.75 10.7197 2.75 9.14969C3.91 7.32969 5.33 5.89969 6.91 4.91969C8.49 3.95969 10.22 3.42969 12 3.42969C14.23 3.42969 16.39 4.24969 18.25 5.74969Z" fill="#292D32"/>
<path id="Vector_4" d="M14.86 12.0001C14.86 13.5701 13.58 14.8601 12 14.8601C11.94 14.8601 11.89 14.8601 11.83 14.8401L14.84 11.8301C14.86 11.8901 14.86 11.9401 14.86 12.0001Z" fill="#292D32"/>
<path id="Vector_5" d="M21.77 2.22988C21.47 1.92988 20.98 1.92988 20.68 2.22988L2.23 20.6899C1.93 20.9899 1.93 21.4799 2.23 21.7799C2.38 21.9199 2.57 21.9999 2.77 21.9999C2.97 21.9999 3.16 21.9199 3.31 21.7699L21.77 3.30988C22.08 3.00988 22.08 2.52988 21.77 2.22988Z" fill="#292D32"/>
</g>
</g>
</svg>
