<svg width="32" height="32" viewBox="0 0 32 32" fill="none" xmlns="http://www.w3.org/2000/svg">
<g id="Group 4">
<path id="Vector" d="M31.6801 16.3556C31.6801 15.04 31.5733 14.08 31.3423 13.0845H16.3201V19.0222H25.1378C24.9601 20.4978 24.0001 22.72 21.8667 24.2133L21.8368 24.4121L26.5865 28.0916L26.9156 28.1245C29.9378 25.3333 31.6801 21.2266 31.6801 16.3556Z" fill="#4285F4"/>
<path id="Vector_2" d="M16.3202 32.0001C20.6401 32.0001 24.2667 30.5778 26.9157 28.1245L21.8668 24.2133C20.5157 25.1556 18.7023 25.8133 16.3202 25.8133C12.0891 25.8133 8.498 23.0223 7.21788 19.1646L7.03024 19.1805L2.09138 23.0027L2.02679 23.1823C4.65788 28.4089 10.0623 32.0001 16.3202 32.0001Z" fill="#34A853"/>
<path id="Vector_3" d="M7.21778 19.1643C6.88001 18.1688 6.68453 17.102 6.68453 15.9999C6.68453 14.8976 6.88001 13.8309 7.20001 12.8354L7.19106 12.6234L2.19031 8.73975L2.02669 8.81757C0.942297 10.9865 0.320068 13.4221 0.320068 15.9999C0.320068 18.5776 0.942297 21.0131 2.02669 23.182L7.21778 19.1643Z" fill="#FBBC05"/>
<path id="Vector_4" d="M16.3202 6.18662C19.3246 6.18662 21.3512 7.48439 22.5068 8.56891L27.0223 4.16C24.2491 1.58223 20.6401 0 16.3202 0C10.0623 0 4.65788 3.59108 2.02679 8.81771L7.20011 12.8355C8.498 8.97777 12.0891 6.18662 16.3202 6.18662Z" fill="#EB4335"/>
</g>
</svg>
