<svg width="16" height="16" viewBox="0 0 16 16" fill="none" xmlns="http://www.w3.org/2000/svg">
<path fill-rule="evenodd" clip-rule="evenodd" d="M13.6 8.8H11.2C9.8744 8.8 8.8 9.8744 8.8 11.2V13.6C8.8 14.9256 9.8744 16 11.2 16H13.6C14.9256 16 16 14.9256 16 13.6V11.2C16 9.8744 14.9256 8.8 13.6 8.8ZM4.8 8.8H2.4C1.0744 8.8 0 9.8744 0 11.2V13.6C0 14.9256 1.0744 16 2.4 16H4.8C6.1256 16 7.2 14.9256 7.2 13.6V11.2C7.2 9.8744 6.1256 8.8 4.8 8.8ZM13.6 0H11.2C9.8744 0 8.8 1.0744 8.8 2.4V4.8C8.8 6.1256 9.8744 7.2 11.2 7.2H13.6C14.9256 7.2 16 6.1256 16 4.8V2.4C16 1.0744 14.9256 0 13.6 0ZM7.2 2.4V4.8C7.2 6.1256 6.1256 7.2 4.8 7.2H2.4C1.0744 7.2 0 6.1256 0 4.8V2.4C0 1.0744 1.0744 0 2.4 0H4.8C6.1256 0 7.2 1.0744 7.2 2.4Z" fill="#F9F9F9"/>
</svg>
