<svg width="20" height="20" viewBox="0 0 20 20" fill="none" xmlns="http://www.w3.org/2000/svg">
<rect width="20" height="20" rx="5" fill="black"/>
<path d="M12 17.1663H8.00001C4.38001 17.1663 2.83334 15.6197 2.83334 11.9997V7.99967C2.83334 4.37967 4.38001 2.83301 8.00001 2.83301H12C15.62 2.83301 17.1667 4.37967 17.1667 7.99967V11.9997C17.1667 15.6197 15.62 17.1663 12 17.1663ZM8.00001 3.83301C4.92668 3.83301 3.83334 4.92634 3.83334 7.99967V11.9997C3.83334 15.073 4.92668 16.1663 8.00001 16.1663H12C15.0733 16.1663 16.1667 15.073 16.1667 11.9997V7.99967C16.1667 4.92634 15.0733 3.83301 12 3.83301H8.00001Z" fill="white"/>
<path d="M9.99999 12.8337C8.43999 12.8337 7.16666 11.5603 7.16666 10.0003C7.16666 8.44033 8.43999 7.16699 9.99999 7.16699C11.56 7.16699 12.8333 8.44033 12.8333 10.0003C12.8333 11.5603 11.56 12.8337 9.99999 12.8337ZM9.99999 8.16699C8.98666 8.16699 8.16666 8.98699 8.16666 10.0003C8.16666 11.0137 8.98666 11.8337 9.99999 11.8337C11.0133 11.8337 11.8333 11.0137 11.8333 10.0003C11.8333 8.98699 11.0133 8.16699 9.99999 8.16699Z" fill="white"/>
<path d="M13.3333 6.99994C13.2467 6.99994 13.16 6.97994 13.08 6.9466C13 6.91327 12.9267 6.8666 12.86 6.8066C12.8 6.73994 12.7467 6.6666 12.7133 6.5866C12.68 6.5066 12.6667 6.41994 12.6667 6.33327C12.6667 6.2466 12.68 6.15994 12.7133 6.07994C12.7533 5.99327 12.8 5.9266 12.86 5.85994C12.8933 5.83327 12.9267 5.79994 12.96 5.77994C13 5.75327 13.04 5.73327 13.08 5.71994C13.12 5.69994 13.16 5.6866 13.2067 5.67994C13.42 5.63327 13.6467 5.7066 13.8067 5.85994C13.8667 5.9266 13.9133 5.99327 13.9467 6.07994C13.98 6.15994 14 6.2466 14 6.33327C14 6.41994 13.98 6.5066 13.9467 6.5866C13.9133 6.6666 13.8667 6.73994 13.8067 6.8066C13.74 6.8666 13.6667 6.91327 13.5867 6.9466C13.5067 6.97994 13.42 6.99994 13.3333 6.99994Z" fill="white"/>
</svg>
