<svg width="20" height="20" viewBox="0 0 20 20" fill="none" xmlns="http://www.w3.org/2000/svg">
<rect width="20" height="20" rx="5" fill="black"/>
<path d="M12.6666 7.66699C13.7275 7.66699 14.7449 8.08842 15.4951 8.83857C16.2452 9.58871 16.6666 10.6061 16.6666 11.667V16.3337H14V11.667C14 11.3134 13.8595 10.9742 13.6095 10.7242C13.3594 10.4741 13.0203 10.3337 12.6666 10.3337C12.313 10.3337 11.9739 10.4741 11.7238 10.7242C11.4738 10.9742 11.3333 11.3134 11.3333 11.667V16.3337H8.66665V11.667C8.66665 10.6061 9.08807 9.58871 9.83822 8.83857C10.5884 8.08842 11.6058 7.66699 12.6666 7.66699Z" stroke="white" stroke-linecap="round" stroke-linejoin="round"/>
<path d="M5.99998 8.33366H3.33331V16.3337H5.99998V8.33366Z" stroke="white" stroke-linecap="round" stroke-linejoin="round"/>
<path d="M4.66665 6.33366C5.40303 6.33366 5.99998 5.73671 5.99998 5.00033C5.99998 4.26395 5.40303 3.66699 4.66665 3.66699C3.93027 3.66699 3.33331 4.26395 3.33331 5.00033C3.33331 5.73671 3.93027 6.33366 4.66665 6.33366Z" stroke="white" stroke-linecap="round" stroke-linejoin="round"/>
</svg>
