<svg width="19" height="21" viewBox="0 0 19 21" fill="none" xmlns="http://www.w3.org/2000/svg">
<path d="M3.5 7V6C3.5 2.68629 6.18629 0 9.5 0C12.8137 0 15.5 2.68629 15.5 6V7H17.5C18.0523 7 18.5 7.44772 18.5 8V20C18.5 20.5523 18.0523 21 17.5 21H1.5C0.94772 21 0.5 20.5523 0.5 20V8C0.5 7.44772 0.94772 7 1.5 7H3.5ZM16.5 9H2.5V19H16.5V9ZM8.5 14.7324C7.9022 14.3866 7.5 13.7403 7.5 13C7.5 11.8954 8.3954 11 9.5 11C10.6046 11 11.5 11.8954 11.5 13C11.5 13.7403 11.0978 14.3866 10.5 14.7324V17H8.5V14.7324ZM5.5 7H13.5V6C13.5 3.79086 11.7091 2 9.5 2C7.29086 2 5.5 3.79086 5.5 6V7Z" fill="#1C1C1C"/>
</svg>
