<svg width="19" height="19" viewBox="0 0 19 19" fill="none" xmlns="http://www.w3.org/2000/svg">
<path d="M12.6999 2.05014H10.7499C8.34985 2.05014 6.84985 3.55014 6.84985 5.95014V8.98764H10.1799L8.62735 7.43514C8.51485 7.32264 8.46235 7.18014 8.46235 7.03764C8.46235 6.89514 8.51485 6.75264 8.62735 6.64014C8.84485 6.42264 9.20485 6.42264 9.42235 6.64014L11.9349 9.15264C12.1524 9.37014 12.1524 9.73014 11.9349 9.94764L9.42235 12.4601C9.20485 12.6776 8.84485 12.6776 8.62735 12.4601C8.40985 12.2426 8.40985 11.8826 8.62735 11.6651L10.1799 10.1126H6.84985V13.1501C6.84985 15.5501 8.34985 17.0501 10.7499 17.0501H12.6924C15.0924 17.0501 16.5924 15.5501 16.5924 13.1501V5.95014C16.5999 3.55014 15.0999 2.05014 12.6999 2.05014Z" fill="#F9F9F9" fill-opacity="0.86"/>
<path d="M2.16278 8.98755C1.85528 8.98755 1.60028 9.24255 1.60028 9.55005C1.60028 9.85755 1.85528 10.1125 2.16278 10.1125H6.85028V8.98755H2.16278Z" fill="#F9F9F9" fill-opacity="0.86"/>
</svg>
