<svg width="43" height="64" viewBox="0 0 43 64" fill="none" xmlns="http://www.w3.org/2000/svg">
<path d="M6.07703 45.3398C6.08341 45.3475 6.09107 45.3577 6.10128 45.3654C6.09873 45.3628 6.08979 45.3539 6.07703 45.3398Z" fill="#EC7A74"/>
<path d="M6.1012 45.3652C6.1012 45.3652 6.1012 45.3666 6.1054 45.368H6.104C6.104 45.368 6.104 45.3666 6.1026 45.3652H6.1012Z" fill="#EC7A74"/>
<path d="M0.381592 6.89904H42.5647V0H7.28063C3.47053 0 0.381592 3.08893 0.381592 6.89904Z" fill="#12945E"/>
<path d="M27.3907 39.815H23.6955C20.6398 39.815 18.1622 37.3374 18.1622 34.2817V29.3305H18.1635V18.4567C20.1534 17.8082 22.1357 17.6206 23.7632 17.6206H24.6426V33.3576C24.6426 35.6896 25.5221 37.9578 27.1725 39.6044C27.2439 39.6758 27.3167 39.746 27.3907 39.815Z" fill="#ED4325"/>
<path d="M42.6424 33.3428V47.5378C42.6424 51.1118 39.7437 54.0105 36.1684 54.0105V39.8155H33.4241C29.8502 39.8155 26.9514 36.9193 26.9514 33.3428H42.6424Z" fill="#FCDB2B"/>
<path d="M11.7762 20.1036C8.7115 23.1045 7.19129 27.3192 7.19129 31.659C7.19129 36.3524 8.91572 40.6616 12.5663 43.5591C16.333 46.5484 20.6677 47.4075 25.356 47.5083C25.4836 47.5109 25.9482 47.5224 26.589 47.5351C30.1132 47.6079 32.9315 50.4862 32.9315 54.0104C27.0983 54.0104 21.1425 54.655 15.5301 52.6702C10.7563 50.9814 6.52372 47.7508 3.79729 43.4659C1.55718 39.9443 0.308838 35.7985 0.308838 31.622C0.308838 23.8308 4.68568 16.3471 11.4162 12.4438C16.7555 9.34852 22.9742 9.20557 28.9772 9.20557H36.0128V15.7178H23.7605C19.3556 15.7178 14.98 16.9636 11.7736 20.1023L11.7762 20.1036Z" fill="#054F9C"/>
<path d="M16.3739 59.6182V60.2819H15.3324V63.076H14.555V60.2819H13.5122C13.5122 59.9156 13.8096 59.6182 14.1759 59.6182H16.3739Z" fill="black"/>
<path d="M16.8219 63.0758V59.3231L17.5648 59.2031V60.4604C17.6146 60.4438 17.6784 60.4285 17.7562 60.4132C17.8341 60.3978 17.9107 60.3902 17.9834 60.3902C18.1966 60.3902 18.3727 60.4195 18.5144 60.477C18.6561 60.5357 18.7684 60.6174 18.854 60.7246C18.9395 60.8318 18.9982 60.9569 19.0339 61.1037C19.0684 61.2505 19.0863 61.4126 19.0863 61.5926V63.0745H18.3434V61.6819C18.3434 61.442 18.3128 61.2722 18.2515 61.1726C18.1902 61.0731 18.0766 61.0233 17.9094 61.0233C17.843 61.0233 17.7805 61.0297 17.7231 61.0412C17.6656 61.0527 17.612 61.0654 17.566 61.0782V63.0745H16.8232L16.8219 63.0758Z" fill="black"/>
<path d="M19.6338 61.7829C19.6338 61.5506 19.6696 61.3463 19.7411 61.1715C19.8125 60.9966 19.9057 60.8511 20.0232 60.7349C20.1393 60.6188 20.2733 60.5307 20.4239 60.4707C20.5746 60.4107 20.7303 60.3813 20.8898 60.3813C21.2626 60.3813 21.5561 60.495 21.7718 60.7234C21.9876 60.9519 22.0961 61.2863 22.0961 61.7292C22.0961 61.7726 22.0948 61.8199 22.091 61.8709C22.0871 61.922 22.0846 61.9679 22.0807 62.0088H20.3959C20.4125 62.162 20.4839 62.2832 20.6103 62.3726C20.7367 62.4619 20.9064 62.5079 21.1183 62.5079C21.2549 62.5079 21.3889 62.4951 21.5191 62.4709C21.6493 62.4466 21.7578 62.4147 21.8408 62.3789L21.9403 62.9827C21.9008 63.0031 21.8472 63.0223 21.7808 63.0427C21.7144 63.0631 21.6404 63.0797 21.5587 63.095C21.477 63.1103 21.3902 63.1231 21.297 63.132C21.2038 63.141 21.1107 63.1474 21.0175 63.1474C20.7813 63.1474 20.5758 63.1129 20.4022 63.0427C20.2274 62.9725 20.0831 62.8767 19.9683 62.7555C19.8534 62.6342 19.7691 62.49 19.7143 62.3241C19.6594 62.1581 19.6326 61.9781 19.6326 61.7854L19.6338 61.7829ZM21.3787 61.4982C21.3749 61.4357 21.3647 61.3731 21.3468 61.3131C21.3289 61.2531 21.2996 61.1995 21.2613 61.1536C21.223 61.1064 21.1745 61.0681 21.117 61.0387C21.0583 61.0093 20.9868 60.994 20.9001 60.994C20.8133 60.994 20.7456 61.0081 20.6856 61.0362C20.6256 61.0642 20.5758 61.1025 20.5363 61.1485C20.4967 61.1957 20.4661 61.2493 20.4444 61.3106C20.4227 61.3719 20.4074 61.4344 20.3971 61.4982H21.3787Z" fill="black"/>
<path d="M24.2992 60.8731C24.2737 61.002 24.1473 61.0837 24.0197 61.0582H24.0172C23.9278 61.039 23.8308 61.0301 23.7274 61.0301C23.6802 61.0301 23.6253 61.0339 23.5602 61.0428C23.4951 61.0518 23.4466 61.0607 23.4134 61.0696V63.0762H22.6705V61.0454C22.6705 60.7659 22.8633 60.5233 23.1364 60.4608H23.1415C23.3228 60.4174 23.5245 60.397 23.7478 60.397C23.7874 60.397 23.8359 60.3995 23.8921 60.4046C23.9482 60.4097 24.0044 60.4161 24.0618 60.4251C24.118 60.434 24.1742 60.4429 24.2316 60.4544C24.2878 60.4659 24.3363 60.4799 24.3758 60.4965L24.2992 60.8731Z" fill="black"/>
<path d="M25.6675 60.3813C25.8871 60.3813 26.0696 60.4069 26.2164 60.4567C26.3632 60.5064 26.4793 60.5779 26.5674 60.6711C26.6555 60.7643 26.718 60.8779 26.7538 61.0106C26.7895 61.1434 26.8086 61.2914 26.8086 61.4548V63.0018C26.7027 63.0248 26.5546 63.0529 26.3645 63.0848C26.1755 63.1167 25.9458 63.132 25.6765 63.132C25.5067 63.132 25.3535 63.1167 25.2157 63.0874C25.0778 63.058 24.9591 63.0082 24.8596 62.9406C24.76 62.8729 24.6834 62.7836 24.6298 62.6738C24.5762 62.564 24.5507 62.4287 24.5507 62.2692C24.5507 62.1096 24.5813 61.9871 24.6426 61.8799C24.7038 61.7739 24.7868 61.6884 24.8889 61.6259C24.9923 61.562 25.1097 61.5174 25.2425 61.488C25.3752 61.4599 25.5131 61.4459 25.656 61.4459C25.7518 61.4459 25.8373 61.4497 25.9126 61.4586C25.9879 61.4676 26.0479 61.4778 26.0951 61.4906V61.4204C26.0951 61.294 26.0568 61.1932 25.9802 61.1166C25.9037 61.04 25.7709 61.0017 25.5807 61.0017C25.4544 61.0017 25.3293 61.0106 25.2067 61.0298C25.0842 61.0489 24.977 61.0744 24.8876 61.1076L24.7932 60.509C24.8366 60.4962 24.8902 60.4809 24.9553 60.4669C25.0204 60.4528 25.0906 60.4388 25.1672 60.4273C25.2438 60.4158 25.3242 60.4056 25.4084 60.3979C25.4927 60.3903 25.5782 60.3852 25.665 60.3852L25.6675 60.3813ZM25.7275 62.5564C25.8003 62.5564 25.8705 62.5551 25.9369 62.5513C26.0032 62.5474 26.0568 62.5423 26.0964 62.5359V61.9718C26.067 61.9654 26.0211 61.959 25.9611 61.9513C25.9011 61.945 25.8462 61.9411 25.7964 61.9411C25.7262 61.9411 25.6611 61.945 25.5999 61.9539C25.5386 61.9628 25.4837 61.9781 25.4378 62.0011C25.3905 62.0241 25.3548 62.056 25.328 62.0956C25.3012 62.1352 25.2884 62.1849 25.2884 62.2449C25.2884 62.3611 25.328 62.4415 25.4059 62.4874C25.4837 62.5321 25.5909 62.5551 25.7275 62.5551V62.5564Z" fill="black"/>
<path d="M29.9206 61.7634C29.9206 61.9664 29.895 62.1515 29.8453 62.3174C29.7955 62.4834 29.7227 62.6263 29.6257 62.7463C29.53 62.8663 29.41 62.9595 29.267 63.0258C29.1241 63.0922 28.9594 63.1254 28.7731 63.1254C28.6697 63.1254 28.5739 63.1152 28.4833 63.096C28.394 63.0756 28.3072 63.0475 28.2242 63.0118V63.9997C27.8145 63.9997 27.4813 63.6666 27.4813 63.2569V60.5419C27.5477 60.5215 27.6243 60.5023 27.7111 60.4845C27.7979 60.4666 27.8885 60.45 27.983 60.4372C28.0774 60.4245 28.1744 60.413 28.2714 60.4053C28.3697 60.3964 28.4642 60.3926 28.5535 60.3926C28.7692 60.3926 28.962 60.4245 29.1317 60.4896C29.3015 60.5547 29.4445 60.6466 29.5606 60.764C29.6768 60.8827 29.7661 61.0257 29.8274 61.1954C29.8886 61.3652 29.9193 61.5541 29.9193 61.7647L29.9206 61.7634ZM29.1624 61.7826C29.1624 61.5528 29.1113 61.369 29.0079 61.2312C28.9045 61.0933 28.7526 61.0244 28.5497 61.0244C28.4833 61.0244 28.422 61.027 28.3659 61.0321C28.3097 61.0372 28.2625 61.0423 28.2268 61.0499V62.3927C28.2727 62.4221 28.334 62.4476 28.4093 62.468C28.4833 62.4885 28.5599 62.4974 28.6365 62.4974C28.9888 62.4974 29.1649 62.26 29.1649 61.7839L29.1624 61.7826Z" fill="black"/>
<path d="M32.7579 60.4515C32.6086 60.9569 32.4516 61.4318 32.2882 61.8734C32.1248 62.3163 31.9461 62.7452 31.7534 63.1613C31.6832 63.3106 31.613 63.4383 31.544 63.543C31.4738 63.6476 31.3972 63.7344 31.3143 63.8021C31.2313 63.8697 31.1369 63.9195 31.0322 63.9514C30.9275 63.9833 30.805 63.9986 30.6659 63.9986C30.5497 63.9986 30.4425 63.9884 30.3442 63.9667C30.2459 63.945 30.1655 63.9208 30.1017 63.894L30.2319 63.3004C30.3085 63.3272 30.3761 63.3451 30.4361 63.3553C30.4961 63.3655 30.5586 63.3706 30.625 63.3706C30.7578 63.3706 30.8599 63.3349 30.9314 63.2634C31.0028 63.1919 31.0641 63.0924 31.1139 62.966C30.9441 62.6329 30.7744 62.2602 30.6046 61.8453C30.4348 61.4318 30.2753 60.9659 30.1259 60.4502H30.9135C30.9467 60.5804 30.9862 60.7208 31.0309 60.8714C31.0756 61.022 31.1241 61.1752 31.1739 61.3309C31.2237 61.4854 31.2747 61.636 31.327 61.7828C31.3794 61.9296 31.4279 62.0623 31.4751 62.1823C31.5185 62.0623 31.5632 61.9296 31.6104 61.7828C31.6576 61.636 31.9576 60.5804 31.9908 60.4502H32.7592L32.7579 60.4515Z" fill="black"/>
<path d="M34.8859 60.2164C34.5234 60.2164 34.2617 60.3172 34.1009 60.5189C33.9401 60.7205 33.8584 60.995 33.8584 61.3447C33.8584 61.5145 33.8788 61.6676 33.9184 61.8068C33.9579 61.9446 34.0179 62.0633 34.0983 62.1642C34.1788 62.265 34.2783 62.3416 34.397 62.3965C34.517 62.4514 34.6561 62.4794 34.8157 62.4794C34.9025 62.4794 34.9765 62.4782 35.0378 62.4743C35.0991 62.4705 35.1527 62.4641 35.1999 62.4539V62.0289C35.1999 61.5987 35.5484 61.2515 35.9772 61.2515V62.99L35.5279 63.0806C35.3224 63.1228 35.0671 63.1432 34.7646 63.1432C34.5055 63.1432 34.2707 63.1036 34.0588 63.0232C33.8482 62.9428 33.6669 62.8266 33.5176 62.6735C33.3682 62.5203 33.2521 62.3327 33.1704 62.1093C33.0887 61.8859 33.0479 61.6319 33.0479 61.346C33.0479 61.0601 33.0925 60.801 33.1819 60.5776C33.2712 60.3542 33.395 60.1653 33.5508 60.0109C33.7065 59.8564 33.8903 59.739 34.1022 59.6586C34.3128 59.5781 34.5387 59.5386 34.7774 59.5386C34.9408 59.5386 35.0876 59.5488 35.219 59.5705C35.3505 59.5922 35.4628 59.6177 35.5586 59.6458C35.6543 59.6739 35.7309 59.7032 35.7934 59.7326C35.8547 59.7619 35.8994 59.7862 35.9262 59.8028L35.7015 60.427C35.5956 60.3708 35.4731 60.321 35.3352 60.2802C35.1973 60.2381 35.0467 60.2176 34.8846 60.2176L34.8859 60.2164Z" fill="black"/>
<path d="M38.9295 60.4515C38.7802 60.9569 38.6232 61.4318 38.4598 61.8734C38.2964 62.3163 38.1177 62.7452 37.925 63.1613C37.8548 63.3106 37.7859 63.4383 37.7157 63.543C37.6455 63.6476 37.5689 63.7344 37.4859 63.8021C37.4029 63.8697 37.3085 63.9195 37.2038 63.9514C37.0992 63.9833 36.9766 63.9986 36.8375 63.9986C36.7213 63.9986 36.6141 63.9884 36.5158 63.9667C36.4176 63.945 36.3371 63.9208 36.2733 63.894L36.4035 63.3004C36.4801 63.3272 36.5477 63.3451 36.6077 63.3553C36.6677 63.3655 36.7315 63.3706 36.7979 63.3706C36.9307 63.3706 37.0328 63.3349 37.1043 63.2634C37.1757 63.1919 37.237 63.0924 37.2868 62.966C37.117 62.6329 36.9473 62.2602 36.7775 61.8453C36.6077 61.4318 36.4482 60.9659 36.2988 60.4502H37.0864C37.1196 60.5804 37.1591 60.7208 37.2038 60.8714C37.2485 61.0233 37.297 61.1752 37.3468 61.3309C37.3966 61.4854 37.4476 61.636 37.5 61.7828C37.551 61.9296 37.6008 62.0623 37.648 62.1823C37.6914 62.0623 37.7361 61.9296 37.7833 61.7828C37.8305 61.636 37.8765 61.4854 37.9212 61.3309C37.9658 61.1765 38.0092 61.0233 38.0514 60.8714C38.0935 60.7195 38.1305 60.5791 38.1637 60.4502H38.9321L38.9295 60.4515Z" fill="black"/>
<path d="M40.7649 61.6833C40.7649 61.4434 40.7342 61.2736 40.673 61.174C40.6117 61.0745 40.5058 61.0247 40.3564 61.0247C40.3092 61.0247 40.262 61.0273 40.2122 61.0324C40.1624 61.0375 40.1139 61.0426 40.0679 61.0502V63.0759H39.3251V60.5409C39.3876 60.5243 39.4617 60.5065 39.5472 60.4886C39.6327 60.4707 39.722 60.4541 39.8165 60.4388C39.911 60.4235 40.008 60.412 40.1088 60.4044C40.2084 60.3954 40.3066 60.3916 40.4024 60.3916C40.5913 60.3916 40.7457 60.4159 40.8632 60.4644C40.9806 60.5129 41.0776 60.5703 41.1542 60.6367C41.2601 60.5601 41.3827 60.5001 41.5205 60.4567C41.6584 60.4133 41.786 60.3916 41.9022 60.3916C42.1115 60.3916 42.2838 60.421 42.4178 60.4784C42.5531 60.5371 42.6604 60.6188 42.7395 60.726C42.8186 60.8332 42.8735 60.9583 42.9042 61.1051C42.9335 61.2519 42.9488 61.414 42.9488 61.594V63.0759H42.2059V61.6833C42.2059 61.4434 42.1753 61.2736 42.1141 61.174C42.0528 61.0745 41.9468 61.0247 41.7975 61.0247C41.7579 61.0247 41.7018 61.0349 41.6303 61.0541C41.5588 61.0745 41.5001 61.0987 41.4529 61.1294C41.4758 61.206 41.4912 61.2864 41.4975 61.3719C41.5039 61.4574 41.5078 61.548 41.5078 61.6438V63.0759H40.7649V61.6833Z" fill="black"/>
<path d="M1.13856 59.2124C1.20494 59.3349 1.2828 59.4856 1.36959 59.6655C1.45639 59.8455 1.54829 60.0408 1.64275 60.2501C1.7372 60.4595 1.83166 60.6739 1.92484 60.8922C2.01802 61.1104 2.10481 61.3172 2.1865 61.51C2.2682 61.3172 2.35627 61.1117 2.44817 60.8922C2.54135 60.6739 2.63453 60.4595 2.73026 60.2501C2.82471 60.0408 2.91662 59.8455 3.00341 59.6655C3.09021 59.4856 3.16807 59.3349 3.23444 59.2124H4.02455C4.06156 59.469 4.09603 59.7549 4.12794 60.0714C4.15985 60.3893 4.18665 60.7186 4.2109 61.0619C4.23515 61.4053 4.25686 61.7486 4.27728 62.0946C4.2977 62.4392 4.31557 62.7647 4.32961 63.0685H3.48335C3.47186 62.6932 3.45782 62.286 3.43867 61.8444C3.41952 61.4027 3.39272 60.9573 3.3557 60.5092C3.28805 60.665 3.21402 60.8373 3.13233 61.0262C3.05064 61.2151 2.96895 61.404 2.88981 61.5942C2.80939 61.7831 2.73281 61.9644 2.65878 62.1367C2.58474 62.309 2.52093 62.4571 2.46859 62.5796H1.86229C1.80996 62.4571 1.74742 62.3103 1.67211 62.1367C1.5968 61.9631 1.52021 61.7831 1.4398 61.5942C1.35939 61.4053 1.27897 61.2164 1.19728 61.0262C1.11559 60.8373 1.04156 60.665 0.973908 60.5092C0.936891 60.9585 0.908807 61.4027 0.890937 61.8444C0.871791 62.286 0.857754 62.6945 0.846266 63.0685H0C0.015317 62.7647 0.0319109 62.4392 0.0523336 62.0946C0.0727563 61.7499 0.094454 61.4053 0.118706 61.0619C0.142958 60.7186 0.171038 60.3893 0.201672 60.0714C0.233583 59.7549 0.268046 59.4677 0.305062 59.2124H1.13346H1.13856Z" fill="black"/>
<path d="M7.90991 59.2124V59.9527H6.74709V63.0685H5.87913V59.9527H4.71631V59.2124H7.90991Z" fill="black"/>
<path d="M11.0537 63.0685C10.8048 62.6268 10.5368 62.1916 10.247 61.7614C9.95729 61.3313 9.64967 60.9254 9.32291 60.5424V63.0685H8.46643V59.2124H9.17357C9.2961 59.3349 9.4314 59.4856 9.57947 59.663C9.72753 59.8404 9.87943 60.0306 10.0326 60.2335C10.187 60.4352 10.3389 60.6458 10.4921 60.8628C10.644 61.0798 10.787 61.2891 10.921 61.4883V59.2124H11.7838V63.0685H11.055H11.0537Z" fill="black"/>
</svg>
