<svg width="14" height="14" viewBox="0 0 14 14" fill="none" xmlns="http://www.w3.org/2000/svg">
<path d="M11.2817 8.42255L10.6983 7.45422C10.5758 7.23839 10.465 6.83005 10.465 6.59089V5.11505C10.465 3.74422 9.66001 2.56005 8.49917 2.00589C8.19584 1.46922 7.63584 1.13672 6.99417 1.13672C6.35834 1.13672 5.78667 1.48089 5.48334 2.02339C4.34584 2.58922 3.55834 3.76172 3.55834 5.11505V6.59089C3.55834 6.83005 3.44751 7.23839 3.32501 7.44839L2.73584 8.42255C2.50251 8.81339 2.45001 9.24505 2.59584 9.64172C2.73584 10.0326 3.06834 10.3359 3.50001 10.4817C4.63167 10.8667 5.82167 11.0534 7.01167 11.0534C8.20167 11.0534 9.39167 10.8667 10.5233 10.4876C10.9317 10.3534 11.2467 10.0442 11.3983 9.64172C11.55 9.23922 11.5092 8.79589 11.2817 8.42255Z" fill="#292D32"/>
<path d="M8.65084 11.6426C8.40584 12.3192 7.75834 12.8034 7.00001 12.8034C6.53918 12.8034 6.08418 12.6167 5.76334 12.2842C5.57668 12.1092 5.43668 11.8759 5.35501 11.6367C5.43084 11.6484 5.50668 11.6542 5.58834 11.6659C5.72251 11.6834 5.86251 11.7009 6.00251 11.7126C6.33501 11.7417 6.67334 11.7592 7.01168 11.7592C7.34418 11.7592 7.67668 11.7417 8.00334 11.7126C8.12584 11.7009 8.24834 11.6951 8.36501 11.6776C8.45834 11.6659 8.55168 11.6542 8.65084 11.6426Z" fill="#353535"/>
</svg>
