<svg width="14" height="15" viewBox="0 0 14 15" fill="none" xmlns="http://www.w3.org/2000/svg">
<path d="M11.1825 3.96355C10.9317 2.69772 9.9925 2.14355 8.68583 2.14355H3.56416C2.02416 2.14355 0.997498 2.91355 0.997498 4.71022V7.71439C0.997498 9.00939 1.52833 9.76772 2.40333 10.0944C2.53166 10.1411 2.67166 10.1819 2.8175 10.2052C3.05083 10.2577 3.30166 10.2811 3.56416 10.2811H8.69166C10.2317 10.2811 11.2583 9.51105 11.2583 7.71439V4.71022C11.2583 4.43605 11.235 4.19105 11.1825 3.96355ZM3.22583 7.09022C3.22583 7.32939 3.0275 7.52772 2.78833 7.52772C2.54916 7.52772 2.35083 7.32939 2.35083 7.09022V5.34022C2.35083 5.10105 2.54916 4.90272 2.78833 4.90272C3.0275 4.90272 3.22583 5.10105 3.22583 5.34022V7.09022ZM6.125 7.75522C5.27333 7.75522 4.585 7.06689 4.585 6.21522C4.585 5.36355 5.27333 4.67522 6.125 4.67522C6.97666 4.67522 7.665 5.36355 7.665 6.21522C7.665 7.06689 6.97666 7.75522 6.125 7.75522ZM9.89333 7.09022C9.89333 7.32939 9.695 7.52772 9.45583 7.52772C9.21666 7.52772 9.01833 7.32939 9.01833 7.09022V5.34022C9.01833 5.10105 9.21666 4.90272 9.45583 4.90272C9.695 4.90272 9.89333 5.10105 9.89333 5.34022V7.09022Z" fill="#353535"/>
<path d="M13.0083 6.45984V9.46401C13.0083 11.2607 11.9817 12.0365 10.4358 12.0365H5.31415C4.87665 12.0365 4.48582 11.9723 4.14749 11.844C3.87332 11.7448 3.63415 11.599 3.44165 11.4123C3.33665 11.3132 3.41832 11.1557 3.56415 11.1557H8.68582C10.8442 11.1557 12.1275 9.87234 12.1275 7.71984V4.70984C12.1275 4.56984 12.285 4.48234 12.3842 4.58734C12.7808 5.00734 13.0083 5.61984 13.0083 6.45984Z" fill="#292D32"/>
</svg>
