<svg width="37" height="37" viewBox="0 0 37 37" fill="none" xmlns="http://www.w3.org/2000/svg">
<path id="Vector" d="M3.625 35.7494C3.05326 35.7494 2.48465 35.5933 1.98097 35.2838C1.52861 35.0029 1.15526 34.6114 0.896145 34.1462C0.636895 33.6807 0.500556 33.1569 0.5 32.6241V3.62435C0.5 2.54017 1.0624 1.53384 1.98078 0.96501C2.43454 0.68618 2.95173 0.527268 3.48378 0.503208C4.01585 0.479147 4.54531 0.590742 5.0224 0.827505C5.0226 0.827606 5.02281 0.827707 5.02301 0.827809L34.0214 15.327C34.5406 15.5871 34.9771 15.9865 35.2822 16.4805C35.5873 16.9745 35.7489 17.5437 35.7489 18.1244C35.7489 18.705 35.5873 19.2742 35.2822 19.7682C34.9771 20.2622 34.5406 20.6616 34.0214 20.9217L5.02177 35.4215C4.58572 35.6395 4.10067 35.7494 3.625 35.7494Z" fill="#164194" stroke="white"/>
</svg>
