<svg width="14" height="14" viewBox="0 0 14 14" fill="none" xmlns="http://www.w3.org/2000/svg">
<path d="M10.7917 2.42763L7.88083 1.3368C7.39667 1.15596 6.60333 1.15596 6.11917 1.3368L3.20833 2.42763C2.5375 2.67846 1.98917 3.4718 1.98917 4.18346V8.51763C1.98917 9.20596 2.44417 10.1101 2.99833 10.5243L5.50667 12.3968C6.32917 13.0151 7.6825 13.0151 8.505 12.3968L11.0133 10.5243C11.5675 10.1101 12.0225 9.20596 12.0225 8.51763V4.18346C12.0108 3.4718 11.4625 2.67846 10.7917 2.42763ZM6.95917 4.13096C7.6475 4.13096 8.2075 4.69096 8.2075 5.3793C8.2075 6.05596 7.67667 6.59846 7.00583 6.6218H6.99417H6.9825C6.97083 6.6218 6.95917 6.6218 6.9475 6.6218C6.2475 6.59846 5.7225 6.05596 5.7225 5.3793C5.71667 4.69096 6.27667 4.13096 6.95917 4.13096ZM8.2775 9.57346C7.92167 9.8068 7.46083 9.9293 7 9.9293C6.53917 9.9293 6.0725 9.81263 5.7225 9.57346C5.39 9.3518 5.20917 9.04846 5.20333 8.71596C5.20333 8.3893 5.39 8.0743 5.7225 7.85263C6.42833 7.38596 7.5775 7.38596 8.28333 7.85263C8.61583 8.0743 8.8025 8.37763 8.8025 8.71013C8.79667 9.0368 8.61 9.3518 8.2775 9.57346Z" fill="#353535"/>
</svg>
