<svg width="16" height="15" viewBox="0 0 16 15" fill="none" xmlns="http://www.w3.org/2000/svg">
<g id="01 align center">
<path id="Vector" d="M15.9574 14.1167L12.0436 10.203C13.0603 8.9596 13.5601 7.37303 13.4398 5.77145C13.3195 4.16987 12.5881 2.67581 11.3971 1.5983C10.2061 0.520793 8.6465 -0.0577183 7.04091 -0.0175734C5.43532 0.0225715 3.90657 0.678301 2.77089 1.81398C1.63521 2.94966 0.979481 4.47841 0.939336 6.084C0.899191 7.68959 1.4777 9.2492 2.55521 10.4402C3.63271 11.6312 5.12678 12.3625 6.72836 12.4829C8.32994 12.6032 9.91651 12.1034 11.1599 11.0867L15.0736 15.0005L15.9574 14.1167ZM7.20738 11.2505C6.21848 11.2505 5.25178 10.9572 4.42953 10.4078C3.60729 9.85841 2.96642 9.07752 2.58799 8.16389C2.20955 7.25026 2.11053 6.24493 2.30346 5.27502C2.49638 4.30512 2.97259 3.4142 3.67185 2.71494C4.37111 2.01568 5.26203 1.53947 6.23193 1.34655C7.20184 1.15362 8.20717 1.25264 9.1208 1.63108C10.0344 2.00951 10.8153 2.65038 11.3647 3.47262C11.9141 4.29487 12.2074 5.26157 12.2074 6.25047C12.2059 7.5761 11.6786 8.847 10.7413 9.78436C9.80391 10.7217 8.53301 11.249 7.20738 11.2505Z" fill="url(#paint0_linear_65_10)"/>
</g>
<defs>
<linearGradient id="paint0_linear_65_10" x1="8.44738" y1="-0.0195313" x2="8.44738" y2="15.0005" gradientUnits="userSpaceOnUse">
<stop stop-color="#0573F6"/>
<stop offset="1" stop-color="#2983EE"/>
</linearGradient>
</defs>
</svg>
