<svg width="14" height="14" viewBox="0 0 14 14" fill="none" xmlns="http://www.w3.org/2000/svg">
<path d="M6.80732 1.27433C6.95895 0.807678 7.61914 0.807676 7.77076 1.27433L8.99482 5.0416C9.06263 5.25029 9.25711 5.39159 9.47654 5.39159H13.4377C13.9284 5.39159 14.1324 6.01947 13.7354 6.30788L10.5308 8.63618C10.3532 8.76516 10.279 8.99378 10.3468 9.20247L11.5708 12.9697C11.7225 13.4364 11.1884 13.8244 10.7914 13.536L7.58676 11.2077C7.40924 11.0788 7.16885 11.0788 6.99132 11.2077L3.78669 13.536C3.38973 13.8244 2.85563 13.4364 3.00725 12.9697L4.23131 9.20247C4.29912 8.99378 4.22484 8.76516 4.04731 8.63618L0.842682 6.30788C0.445723 6.01947 0.649732 5.39159 1.1404 5.39159H5.10154C5.32098 5.39159 5.51545 5.25029 5.58326 5.0416L6.80732 1.27433Z" fill="#FF9B26"/>
</svg>
