<svg width="13" height="15" viewBox="0 0 13 15" fill="none" xmlns="http://www.w3.org/2000/svg">
<path d="M11.9166 5.95378V8.87044C11.9166 11.7871 10.8333 12.9538 8.12492 12.9538H4.87492C2.16659 12.9538 1.08325 11.7871 1.08325 8.87044V5.37044C1.08325 2.45378 2.16659 1.28711 4.87492 1.28711H7.58325" fill="#FEFEFF"/>
<path d="M11.9166 5.95378V8.87044C11.9166 11.7871 10.8333 12.9538 8.12492 12.9538H4.87492C2.16659 12.9538 1.08325 11.7871 1.08325 8.87044V5.37044C1.08325 2.45378 2.16659 1.28711 4.87492 1.28711H7.58325" stroke="#292D32" stroke-width="1.5" stroke-linecap="round" stroke-linejoin="round"/>
<path d="M11.9166 5.95378H9.74992C8.12492 5.95378 7.58325 5.37044 7.58325 3.62044V1.28711L11.9166 5.95378Z" fill="#FEFEFF" stroke="#292D32" stroke-width="1.5" stroke-linecap="round" stroke-linejoin="round"/>
<path d="M3.58588 9.29591C3.40713 8.69508 3.61838 7.95424 4.19796 7.75008C4.50671 7.64508 4.88588 7.73258 5.09713 8.05341C5.29755 7.72091 5.69296 7.64508 5.9963 7.75008C6.5813 7.95424 6.78713 8.69508 6.6138 9.29591C6.33755 10.2467 5.36796 10.7426 5.09713 10.7426C4.83171 10.7367 3.87296 10.2526 3.58588 9.29591Z" stroke="#292D32" stroke-width="1.5" stroke-linecap="round" stroke-linejoin="round"/>
</svg>
