<svg width="12" height="12" viewBox="0 0 12 12" fill="none" xmlns="http://www.w3.org/2000/svg">
<path d="M10.725 4.1719C9.66919 4.1719 9.23752 3.42523 9.76252 2.5094C10.0659 1.97856 9.88502 1.3019 9.35419 0.998562L8.34502 0.421062C7.88419 0.146896 7.28919 0.310229 7.01502 0.771062L6.95085 0.881896C6.42585 1.79773 5.56252 1.79773 5.03169 0.881896L4.96752 0.771062C4.70502 0.310229 4.11002 0.146896 3.64919 0.421062L2.64002 0.998562C2.10919 1.3019 1.92835 1.9844 2.23169 2.51523C2.76252 3.42523 2.33085 4.1719 1.27502 4.1719C0.668354 4.1719 0.166687 4.66773 0.166687 5.28023V6.3069C0.166687 6.91356 0.66252 7.41523 1.27502 7.41523C2.33085 7.41523 2.76252 8.16189 2.23169 9.07773C1.92835 9.60856 2.10919 10.2852 2.64002 10.5886L3.64919 11.1661C4.11002 11.4402 4.70502 11.2769 4.97919 10.8161L5.04335 10.7052C5.56835 9.7894 6.43169 9.7894 6.96252 10.7052L7.02669 10.8161C7.30085 11.2769 7.89585 11.4402 8.35669 11.1661L9.36585 10.5886C9.89669 10.2852 10.0775 9.60273 9.77419 9.07773C9.24335 8.16189 9.67502 7.41523 10.7309 7.41523C11.3375 7.41523 11.8392 6.9194 11.8392 6.3069V5.28023C11.8334 4.67356 11.3375 4.1719 10.725 4.1719ZM6.00002 7.6894C4.95585 7.6894 4.10419 6.83773 4.10419 5.79356C4.10419 4.7494 4.95585 3.89773 6.00002 3.89773C7.04419 3.89773 7.89585 4.7494 7.89585 5.79356C7.89585 6.83773 7.04419 7.6894 6.00002 7.6894Z" fill="#F9F9F9" fill-opacity="0.86"/>
</svg>
