<svg width="82" height="121" viewBox="0 0 82 121" fill="none" xmlns="http://www.w3.org/2000/svg">
<path d="M11.4894 85.7207C11.5016 85.7354 11.5164 85.755 11.536 85.7698C11.5311 85.7649 11.5139 85.7477 11.4894 85.7207Z" fill="#EC7A74"/>
<path d="M11.535 85.7686C11.535 85.7686 11.535 85.7715 11.544 85.7745H11.541C11.541 85.7745 11.541 85.7715 11.538 85.7686H11.535Z" fill="#EC7A74"/>
<path d="M0.721436 13.0435H80.4737V0H13.7649C6.56145 0 0.721436 5.84001 0.721436 13.0435Z" fill="#12945E"/>
<path d="M51.7855 75.2751H44.7992C39.022 75.2751 34.3379 70.5911 34.3379 64.8138V55.4529H34.3403V34.8946C38.1025 33.6687 41.8503 33.314 44.9271 33.314H46.5898V63.0666C46.5898 67.4756 48.2526 71.7639 51.3729 74.877C51.508 75.0121 51.6455 75.1448 51.7855 75.2751Z" fill="#ED4325"/>
<path d="M80.6208 63.0386V89.8761C80.6208 96.6331 75.1403 102.114 68.3809 102.114V75.276H63.1924C56.4354 75.276 50.955 69.8004 50.955 63.0386H80.6208Z" fill="#FCDB2B"/>
<path d="M22.2643 38.0084C16.4701 43.6819 13.596 51.6504 13.596 59.8554C13.596 68.7288 16.8562 76.8759 23.7581 82.3539C30.8795 88.0057 39.0748 89.6298 47.9386 89.8204C48.1799 89.8252 49.0583 89.847 50.2698 89.8711C56.9327 90.0086 62.2611 95.4505 62.2611 102.113C51.2327 102.113 39.9725 103.332 29.3616 99.5795C20.3361 96.3868 12.3339 90.2789 7.17921 82.1777C2.944 75.5196 0.583862 67.6815 0.583862 59.7854C0.583862 45.055 8.85882 30.9063 21.5838 23.5267C31.6783 17.6746 43.4355 17.4043 54.7849 17.4043H68.0866V29.7166H44.9221C36.594 29.7166 28.3215 32.0719 22.2595 38.006L22.2643 38.0084Z" fill="#054F9C"/>
<path d="M30.957 112.715V113.97H28.9878V119.253H27.5181V113.97H25.5465C25.5465 113.278 26.1088 112.715 26.8014 112.715H30.957Z" fill="black"/>
<path d="M31.804 119.252V112.158L33.2084 111.931V114.308C33.3026 114.276 33.4232 114.247 33.5704 114.218C33.7176 114.189 33.8624 114.175 34 114.175C34.403 114.175 34.736 114.23 35.0039 114.339C35.2718 114.45 35.4841 114.605 35.6458 114.807C35.8075 115.01 35.9185 115.246 35.9861 115.524C36.0512 115.801 36.085 116.108 36.085 116.448V119.25H34.6805V116.617C34.6805 116.163 34.6226 115.843 34.5068 115.654C34.3909 115.466 34.1762 115.372 33.86 115.372C33.7345 115.372 33.6163 115.384 33.5077 115.406C33.3991 115.427 33.2977 115.452 33.2109 115.476V119.25H31.8064L31.804 119.252Z" fill="black"/>
<path d="M37.1202 116.808C37.1202 116.369 37.1878 115.983 37.3229 115.652C37.4581 115.322 37.6342 115.047 37.8562 114.827C38.0758 114.608 38.3292 114.441 38.614 114.328C38.8988 114.214 39.1932 114.159 39.4948 114.159C40.1995 114.159 40.7545 114.373 41.1624 114.805C41.5702 115.237 41.7753 115.87 41.7753 116.707C41.7753 116.789 41.7729 116.878 41.7657 116.975C41.7584 117.071 41.7536 117.158 41.7464 117.236H38.5609C38.5923 117.525 38.7274 117.754 38.9663 117.923C39.2052 118.092 39.5262 118.179 39.9268 118.179C40.185 118.179 40.4384 118.155 40.6845 118.109C40.9307 118.063 41.1358 118.003 41.2927 117.935L41.4809 119.077C41.4061 119.115 41.3048 119.152 41.1793 119.19C41.0538 119.229 40.9138 119.26 40.7594 119.289C40.6049 119.318 40.4408 119.342 40.2646 119.359C40.0885 119.376 39.9123 119.388 39.7361 119.388C39.2897 119.388 38.9012 119.323 38.573 119.19C38.2424 119.058 37.9697 118.877 37.7525 118.647C37.5353 118.418 37.376 118.145 37.2722 117.832C37.1685 117.518 37.1178 117.178 37.1178 116.813L37.1202 116.808ZM40.4191 116.27C40.4119 116.152 40.3925 116.034 40.3588 115.92C40.325 115.807 40.2695 115.706 40.1971 115.619C40.1247 115.529 40.033 115.457 39.9244 115.402C39.8134 115.346 39.6782 115.317 39.5141 115.317C39.35 115.317 39.2221 115.344 39.1087 115.397C38.9953 115.45 38.9012 115.522 38.8264 115.609C38.7516 115.698 38.6936 115.8 38.6526 115.916C38.6116 116.031 38.5826 116.15 38.5633 116.27H40.4191Z" fill="black"/>
<path d="M45.9407 115.088C45.8925 115.332 45.6536 115.486 45.4122 115.438H45.4074C45.2385 115.402 45.0551 115.385 44.8596 115.385C44.7703 115.385 44.6666 115.392 44.5435 115.409C44.4204 115.426 44.3287 115.443 44.2659 115.46V119.253H42.8615V115.414C42.8615 114.885 43.2259 114.427 43.7423 114.309H43.7519C44.0946 114.227 44.4759 114.188 44.8982 114.188C44.973 114.188 45.0647 114.193 45.1709 114.202C45.2771 114.212 45.3833 114.224 45.4919 114.241C45.5981 114.258 45.7042 114.275 45.8128 114.297C45.919 114.318 46.0107 114.345 46.0855 114.376L45.9407 115.088Z" fill="black"/>
<path d="M48.5276 114.159C48.9427 114.159 49.2878 114.207 49.5653 114.301C49.8428 114.395 50.0624 114.53 50.2289 114.706C50.3954 114.883 50.5137 115.097 50.5812 115.348C50.6488 115.599 50.685 115.879 50.685 116.188V119.113C50.4847 119.156 50.2048 119.21 49.8452 119.27C49.4881 119.33 49.0537 119.359 48.5445 119.359C48.2235 119.359 47.9339 119.33 47.6733 119.275C47.4127 119.219 47.1883 119.125 47 118.997C46.8118 118.869 46.667 118.7 46.5656 118.493C46.4643 118.285 46.416 118.03 46.416 117.728C46.416 117.426 46.4739 117.195 46.5898 116.992C46.7056 116.792 46.8625 116.63 47.0555 116.512C47.251 116.391 47.473 116.306 47.724 116.251C47.975 116.198 48.2356 116.171 48.5059 116.171C48.6869 116.171 48.8486 116.179 48.9909 116.195C49.1333 116.212 49.2467 116.232 49.336 116.256V116.123C49.336 115.884 49.2636 115.694 49.1188 115.549C48.974 115.404 48.7231 115.332 48.3635 115.332C48.1246 115.332 47.8881 115.348 47.6564 115.385C47.4247 115.421 47.222 115.469 47.0531 115.532L46.8745 114.4C46.9566 114.376 47.0579 114.347 47.181 114.32C47.3041 114.294 47.4368 114.267 47.5816 114.246C47.7264 114.224 47.8784 114.205 48.0377 114.19C48.197 114.176 48.3587 114.166 48.5228 114.166L48.5276 114.159ZM48.641 118.271C48.7786 118.271 48.9113 118.268 49.0368 118.261C49.1623 118.254 49.2636 118.244 49.3384 118.232V117.166C49.2829 117.154 49.1961 117.141 49.0826 117.127C48.9692 117.115 48.8654 117.108 48.7713 117.108C48.6386 117.108 48.5155 117.115 48.3997 117.132C48.2839 117.149 48.1801 117.178 48.0932 117.221C48.0039 117.265 47.9364 117.325 47.8857 117.4C47.835 117.474 47.8109 117.569 47.8109 117.682C47.8109 117.902 47.8857 118.054 48.0329 118.141C48.1801 118.225 48.3828 118.268 48.641 118.268V118.271Z" fill="black"/>
<path d="M56.5685 116.771C56.5685 117.155 56.5202 117.505 56.4261 117.819C56.332 118.133 56.1944 118.403 56.011 118.63C55.83 118.857 55.6032 119.033 55.3329 119.158C55.0626 119.284 54.7513 119.346 54.399 119.346C54.2035 119.346 54.0225 119.327 53.8512 119.291C53.6823 119.252 53.5181 119.199 53.3613 119.132V120.999C52.5866 120.999 51.9568 120.37 51.9568 119.595V114.462C52.0823 114.423 52.2271 114.387 52.3912 114.353C52.5553 114.32 52.7266 114.288 52.9052 114.264C53.0838 114.24 53.2672 114.218 53.4506 114.204C53.6364 114.187 53.815 114.18 53.9839 114.18C54.3917 114.18 54.7561 114.24 55.0771 114.363C55.398 114.486 55.6683 114.66 55.8879 114.882C56.1075 115.106 56.2765 115.377 56.3923 115.698C56.5081 116.019 56.5661 116.376 56.5661 116.774L56.5685 116.771ZM55.135 116.808C55.135 116.373 55.0385 116.026 54.843 115.765C54.6475 115.505 54.3604 115.374 53.9767 115.374C53.8512 115.374 53.7353 115.379 53.6292 115.389C53.523 115.398 53.4337 115.408 53.3661 115.423V117.961C53.453 118.017 53.5688 118.065 53.7112 118.104C53.8512 118.142 53.996 118.159 54.1408 118.159C54.8068 118.159 55.1398 117.71 55.1398 116.81L55.135 116.808Z" fill="black"/>
<path d="M61.9328 114.291C61.6505 115.247 61.3536 116.144 61.0447 116.979C60.7359 117.817 60.398 118.628 60.0336 119.414C59.9009 119.697 59.7681 119.938 59.6378 120.136C59.5051 120.334 59.3603 120.498 59.2035 120.626C59.0466 120.754 58.868 120.848 58.6701 120.908C58.4722 120.968 58.2406 120.997 57.9775 120.997C57.7579 120.997 57.5552 120.978 57.3694 120.937C57.1836 120.896 57.0316 120.85 56.9109 120.799L57.157 119.677C57.3018 119.728 57.4297 119.762 57.5432 119.781C57.6566 119.8 57.7748 119.81 57.9003 119.81C58.1513 119.81 58.3443 119.742 58.4795 119.607C58.6146 119.472 58.7305 119.284 58.8246 119.045C58.5036 118.415 58.1827 117.711 57.8617 116.926C57.5407 116.144 57.2391 115.264 56.9567 114.289H58.4457C58.5084 114.535 58.5832 114.8 58.6677 115.085C58.7522 115.37 58.8439 115.659 58.938 115.954C59.0321 116.246 59.1286 116.53 59.2276 116.808C59.3265 117.086 59.4182 117.336 59.5075 117.563C59.5896 117.336 59.674 117.086 59.7633 116.808C59.8526 116.53 60.4197 114.535 60.4825 114.289H61.9352L61.9328 114.291Z" fill="black"/>
<path d="M65.9561 113.846C65.2708 113.846 64.7761 114.037 64.472 114.418C64.1679 114.8 64.0135 115.318 64.0135 115.98C64.0135 116.301 64.0521 116.59 64.1269 116.853C64.2017 117.114 64.3151 117.338 64.4672 117.529C64.6192 117.72 64.8074 117.864 65.0319 117.968C65.2587 118.072 65.5218 118.125 65.8234 118.125C65.9875 118.125 66.1275 118.123 66.2433 118.115C66.3591 118.108 66.4605 118.096 66.5498 118.077V117.273C66.5498 116.46 67.2086 115.803 68.0194 115.803V119.09L67.17 119.262C66.7814 119.341 66.2988 119.38 65.7269 119.38C65.237 119.38 64.793 119.305 64.3924 119.153C63.9942 119.001 63.6515 118.781 63.3691 118.492C63.0868 118.202 62.8672 117.847 62.7128 117.425C62.5583 117.003 62.4811 116.523 62.4811 115.982C62.4811 115.442 62.5656 114.952 62.7345 114.529C62.9034 114.107 63.1375 113.75 63.4319 113.458C63.7263 113.166 64.0738 112.944 64.4744 112.792C64.8726 112.64 65.2997 112.565 65.751 112.565C66.0599 112.565 66.3374 112.584 66.586 112.625C66.8345 112.666 67.0469 112.715 67.2279 112.768C67.4089 112.821 67.5537 112.876 67.6719 112.932C67.7878 112.987 67.8722 113.033 67.9229 113.064L67.4982 114.245C67.2979 114.138 67.0662 114.044 66.8056 113.967C66.545 113.887 66.2602 113.849 65.9537 113.849L65.9561 113.846Z" fill="black"/>
<path d="M73.6011 114.291C73.3188 115.247 73.022 116.144 72.7131 116.979C72.4042 117.817 72.0663 118.628 71.7019 119.414C71.5692 119.697 71.4389 119.938 71.3062 120.136C71.1734 120.334 71.0286 120.498 70.8718 120.626C70.7149 120.754 70.5363 120.848 70.3385 120.908C70.1406 120.968 69.9089 120.997 69.6459 120.997C69.4263 120.997 69.2236 120.978 69.0377 120.937C68.8519 120.896 68.6999 120.85 68.5792 120.799L68.8254 119.677C68.9702 119.728 69.0981 119.762 69.2115 119.781C69.3249 119.8 69.4456 119.81 69.5711 119.81C69.822 119.81 70.0151 119.742 70.1502 119.607C70.2854 119.472 70.4012 119.284 70.4953 119.045C70.1744 118.415 69.8534 117.711 69.5325 116.926C69.2115 116.144 68.9098 115.264 68.6275 114.289H70.1164C70.1792 114.535 70.254 114.8 70.3385 115.085C70.4229 115.372 70.5146 115.659 70.6087 115.954C70.7029 116.246 70.7994 116.53 70.8983 116.808C70.9949 117.086 71.089 117.336 71.1783 117.563C71.2603 117.336 71.3448 117.086 71.4341 116.808C71.5234 116.53 71.6102 116.246 71.6947 115.954C71.7792 115.662 71.8612 115.372 71.9408 115.085C72.0205 114.798 72.0905 114.532 72.1532 114.289H73.606L73.6011 114.291Z" fill="black"/>
<path d="M77.0711 116.62C77.0711 116.166 77.0132 115.845 76.8974 115.657C76.7815 115.469 76.5812 115.375 76.2989 115.375C76.2096 115.375 76.1203 115.38 76.0262 115.389C75.9321 115.399 75.8404 115.408 75.7535 115.423V119.253H74.349V114.46C74.4672 114.429 74.6072 114.395 74.7689 114.361C74.9306 114.327 75.0995 114.296 75.2781 114.267C75.4567 114.238 75.6401 114.216 75.8307 114.202C76.019 114.185 76.2048 114.178 76.3858 114.178C76.7429 114.178 77.0349 114.224 77.2569 114.315C77.479 114.407 77.6624 114.516 77.8072 114.641C78.0075 114.496 78.2391 114.383 78.4998 114.301C78.7604 114.219 79.0017 114.178 79.2213 114.178C79.6171 114.178 79.9429 114.233 80.1963 114.342C80.4521 114.453 80.6548 114.607 80.8044 114.81C80.954 115.013 81.0578 115.249 81.1157 115.527C81.1712 115.804 81.2002 116.111 81.2002 116.451V119.253H79.7957V116.62C79.7957 116.166 79.7377 115.845 79.6219 115.657C79.5061 115.469 79.3058 115.375 79.0234 115.375C78.9486 115.375 78.8424 115.394 78.7073 115.43C78.5722 115.469 78.4611 115.515 78.3719 115.573C78.4153 115.717 78.4443 115.869 78.4563 116.031C78.4684 116.193 78.4756 116.364 78.4756 116.545V119.253H77.0711V116.62Z" fill="black"/>
<path d="M2.15259 111.948C2.27808 112.18 2.42529 112.465 2.58939 112.805C2.75349 113.145 2.92724 113.514 3.10582 113.91C3.2844 114.306 3.46298 114.711 3.63914 115.124C3.81531 115.537 3.97941 115.928 4.13386 116.292C4.28831 115.928 4.45481 115.539 4.62857 115.124C4.80473 114.711 4.9809 114.306 5.16189 113.91C5.34047 113.514 5.51422 113.145 5.67832 112.805C5.84242 112.465 5.98963 112.18 6.11512 111.948H7.6089C7.67889 112.433 7.74404 112.974 7.80437 113.572C7.86471 114.173 7.91538 114.796 7.96123 115.445C8.00708 116.094 8.04811 116.743 8.08673 117.397C8.12534 118.049 8.15912 118.664 8.18566 119.239H6.5857C6.56398 118.529 6.53743 117.759 6.50123 116.924C6.46504 116.089 6.41436 115.247 6.34438 114.4C6.21647 114.694 6.07651 115.02 5.92206 115.377C5.76761 115.735 5.61316 116.092 5.46354 116.451C5.31151 116.808 5.16672 117.151 5.02675 117.477C4.88678 117.803 4.76612 118.083 4.66718 118.314H3.5209C3.42195 118.083 3.30371 117.805 3.16133 117.477C3.01895 117.149 2.87415 116.808 2.72212 116.451C2.57009 116.094 2.41805 115.737 2.26361 115.377C2.10916 115.02 1.96919 114.694 1.84129 114.4C1.77131 115.25 1.71821 116.089 1.68443 116.924C1.64823 117.759 1.62169 118.532 1.59997 119.239H0C0.0289587 118.664 0.0603316 118.049 0.0989432 117.397C0.137555 116.746 0.178577 116.094 0.224428 115.445C0.27028 114.796 0.323369 114.173 0.381287 113.572C0.441617 112.974 0.506774 112.431 0.576757 111.948H2.14295H2.15259Z" fill="black"/>
<path d="M14.9546 111.948V113.348H12.7562V119.239H11.1152V113.348H8.91675V111.948H14.9546Z" fill="black"/>
<path d="M20.8985 119.239C20.4279 118.404 19.9211 117.581 19.3733 116.767C18.8255 115.954 18.2439 115.187 17.6261 114.463V119.239H16.0068V111.948H17.3438C17.5754 112.18 17.8312 112.465 18.1112 112.8C18.3911 113.136 18.6783 113.495 18.9679 113.879C19.2599 114.26 19.547 114.658 19.8366 115.069C20.1238 115.479 20.3941 115.875 20.6475 116.251V111.948H22.2788V119.239H20.9009H20.8985Z" fill="black"/>
</svg>
