<svg width="33" height="32" viewBox="0 0 33 32" fill="none" xmlns="http://www.w3.org/2000/svg">
<g id="Twitter" clip-path="url(#clip0_1518_3505)">
<path id="Vector" d="M32.3201 6.07773C31.1163 6.60274 29.8433 6.95165 28.5401 7.11373C29.9134 6.29899 30.9402 5.00886 31.4261 3.48773C30.1401 4.25041 28.7331 4.78749 27.2661 5.07573C26.3666 4.11529 25.199 3.44757 23.915 3.15932C22.6311 2.87107 21.2902 2.97562 20.0664 3.45938C18.8427 3.94314 17.7927 4.78376 17.0529 5.87201C16.3131 6.96026 15.9177 8.24584 15.9181 9.56173C15.9181 10.0817 15.9621 10.5817 16.0701 11.0577C13.4602 10.9298 10.9068 10.2524 8.57667 9.06997C6.24656 7.88751 4.19226 6.22657 2.54807 4.19573C1.70571 5.63945 1.44529 7.34995 1.81983 8.97894C2.19438 10.6079 3.17574 12.0329 4.56407 12.9637C3.52558 12.9359 2.50902 12.6588 1.60007 12.1557V12.2277C1.60181 13.7426 2.1254 15.2106 3.0827 16.3847C4.04001 17.5587 5.37257 18.3671 6.85607 18.6737C6.29484 18.8216 5.71644 18.8943 5.13607 18.8897C4.71925 18.8971 4.30284 18.8596 3.89407 18.7777C4.31795 20.0798 5.13505 21.2184 6.23286 22.0368C7.33066 22.8553 8.65519 23.3133 10.0241 23.3477C7.70195 25.1638 4.83802 26.149 1.89007 26.1457C1.35207 26.1457 0.836068 26.1217 0.320068 26.0557C3.31983 27.9888 6.81542 29.0114 10.3841 28.9997C22.4561 28.9997 29.0561 18.9997 29.0561 10.3317C29.0561 10.0417 29.0461 9.76173 29.0321 9.48373C30.326 8.55771 31.4402 7.4035 32.3201 6.07773Z" fill="#03A9F4"/>
</g>
<defs>
<clipPath id="clip0_1518_3505">
<rect width="32" height="32" fill="white" transform="translate(0.320068)"/>
</clipPath>
</defs>
</svg>
