<svg width="20" height="20" viewBox="0 0 20 20" fill="none" xmlns="http://www.w3.org/2000/svg">
<rect width="20" height="20" rx="5" fill="black"/>
<path d="M17.3333 3.99987C16.6949 4.45019 15.9881 4.79461 15.24 5.01987C14.8385 4.55821 14.3049 4.231 13.7113 4.08249C13.1178 3.93397 12.493 3.97133 11.9214 4.1895C11.3498 4.40768 10.859 4.79614 10.5153 5.30235C10.1717 5.80856 9.99179 6.40809 9.99999 7.01987V7.68653C8.82841 7.71691 7.66751 7.45708 6.62066 6.93017C5.57382 6.40325 4.67353 5.62562 3.99999 4.66653C3.99999 4.66653 1.33332 10.6665 7.33332 13.3332C5.96034 14.2652 4.32476 14.7325 2.66666 14.6665C8.66666 17.9999 16 14.6665 16 6.99987C15.9994 6.81417 15.9815 6.62893 15.9467 6.44653C16.6271 5.77553 17.1072 4.92834 17.3333 3.99987Z" stroke="white" stroke-linecap="round" stroke-linejoin="round"/>
</svg>
