<svg width="24" height="24" viewBox="0 0 24 24" fill="none" xmlns="http://www.w3.org/2000/svg">
<path d="M15.75 15C13.0576 15 10.875 12.8174 10.875 10.125C10.875 7.43261 13.0576 5.25 15.75 5.25C18.4424 5.25 20.625 7.43261 20.625 10.125C20.625 12.8174 18.4424 15 15.75 15Z" stroke="#017AFD" stroke-width="1.5" stroke-miterlimit="10"/>
<path d="M9.43018 5.43159C8.75966 5.24267 8.05644 5.19963 7.36789 5.30538C6.67933 5.41112 6.02144 5.66319 5.43851 6.0446C4.85558 6.42602 4.36115 6.92792 3.98852 7.51651C3.6159 8.1051 3.37374 8.76671 3.27834 9.45677C3.18294 10.1468 3.23653 10.8493 3.43549 11.5169C3.63445 12.1845 3.97417 12.8018 4.43176 13.327C4.88934 13.8523 5.45418 14.2734 6.08822 14.562C6.72226 14.8506 7.41078 14.9999 8.1074 15" stroke="#017AFD" stroke-width="1.5" stroke-linecap="round" stroke-linejoin="round"/>
<path d="M22.5004 18.5059C21.739 17.4229 20.7282 16.539 19.5534 15.9288C18.3785 15.3186 17.0741 15.0001 15.7503 15C14.4264 14.9999 13.122 15.3184 11.9471 15.9285C10.7722 16.5386 9.7614 17.4225 8.99994 18.5054" stroke="#017AFD" stroke-width="1.5" stroke-linecap="round" stroke-linejoin="round"/>
<path d="M8.1073 15C6.78333 14.999 5.47862 15.3171 4.30364 15.9273C3.12866 16.5375 2.11801 17.4218 1.35727 18.5054" stroke="#017AFD" stroke-width="1.5" stroke-linecap="round" stroke-linejoin="round"/>
</svg>
