<svg width="187" height="231" viewBox="0 0 187 231" fill="none" xmlns="http://www.w3.org/2000/svg">
<path d="M-248.646 258.434C-239.086 296.183 -204.281 342.369 -165.387 321.291C-135.988 305.359 -174.601 277.784 -141.677 246.749C-108.752 215.714 -56.6773 207.567 -23.2317 233.948C1.39705 253.376 -23.4702 285.556 -2.34164 308.031C46.2237 359.691 198.682 302.312 185.964 234.332C177.533 189.272 114.557 200.132 84.1215 164.599C47.1415 121.425 81.7002 63.6396 32.4162 31.6527C-4.85477 7.46269 -45.5492 -13.5331 -85.902 11.7013C-138.309 44.4736 0.43547 108.836 -47.92 146.397C-70.3852 163.847 -90.8662 162.391 -119.549 166.595C-154.61 171.734 -178.245 148.682 -209.383 165.269C-247.123 185.373 -257.883 221.963 -248.646 258.434Z" fill="url(#paint0_linear_2003_5310)"/>
<defs>
<linearGradient id="paint0_linear_2003_5310" x1="-302" y1="69.3638" x2="143.414" y2="377.514" gradientUnits="userSpaceOnUse">
<stop stop-color="#0573F6"/>
<stop offset="1" stop-color="white"/>
</linearGradient>
</defs>
</svg>
