<svg width="32" height="32" viewBox="0 0 32 32" fill="none" xmlns="http://www.w3.org/2000/svg">
<path fill-rule="evenodd" clip-rule="evenodd" d="M17 22.5C17 22.224 16.776 22 16.5 22H15.5C15.224 22 15 22.224 15 22.5V23.5C15 23.776 15.224 24 15.5 24H16.5C16.776 24 17 23.776 17 23.5V22.5Z" fill="#ECE914"/>
<path fill-rule="evenodd" clip-rule="evenodd" d="M4.75247 25.9989H23C23.552 25.9989 24 26.447 24 26.9991C24 27.5512 23.552 27.9992 23 27.9992H2.99997C2.64097 27.9992 2.30947 27.8067 2.13147 27.4945C1.95347 27.1827 1.95647 26.7994 2.13897 26.4905L15.139 4.49064C15.319 4.18603 15.6465 3.99902 16 3.99902C16.3535 3.99902 16.681 4.18603 16.861 4.49064L29.861 26.4905C30.0435 26.7994 30.0465 27.1827 29.8685 27.4945C29.6905 27.8067 29.359 27.9992 29 27.9992H27C26.448 27.9992 26 27.5512 26 26.9991C26 26.447 26.448 25.9989 27 25.9989H27.2475L16 6.96478L4.75247 25.9989Z" fill="#ECE914"/>
<path fill-rule="evenodd" clip-rule="evenodd" d="M17 13.5005C17 13.2242 16.776 13 16.5 13H15.5C15.224 13 15 13.2242 15 13.5005V20.0005C15 20.2767 15.224 20.501 15.5 20.501H16.5C16.776 20.501 17 20.2767 17 20.0005V13.5005Z" fill="#ECE914"/>
</svg>
