<svg width="27" height="27" viewBox="0 0 27 27" fill="none" xmlns="http://www.w3.org/2000/svg">
<g id="&#240;&#159;&#166;&#134; icon &#34;achievement&#34;">
<path id="Vector" d="M0 0H27V27H0V0Z" fill="white"/>
<path id="Vector_2" d="M16.1354 15.7578L17.3327 15.8834V25.6289L14.0256 22.0975V16.4794L14.9861 16.9485L16.1354 15.7578ZM10.8646 15.7578L9.66669 15.8834V25.6289L12.9737 22.0975V16.4794L12.0133 16.9485L10.8646 15.7578ZM19.9339 9.65218L20.3213 11.0008L19.1582 11.785L19.0608 13.1862L17.6998 13.525L17.1301 14.8072L15.7347 14.6598L14.7605 15.6663L13.5 15.0505L12.2395 15.6663L11.2653 14.6565L9.86993 14.8039L9.30024 13.5217L7.93917 13.1862L7.84177 11.7869L6.67539 11.0001L7.06288 9.65155L6.24054 8.51544L7.06552 7.3806L6.67539 6.03466L7.83913 5.2505L7.93653 3.85119L9.30024 3.5157L9.86993 2.23356L11.2653 2.3809L12.2395 1.37109L13.5 1.98687L14.7605 1.37109L15.7347 2.3809L17.1301 2.23356L17.6998 3.5157L19.0608 3.85451L19.1582 5.25377L20.3213 6.03793L19.9339 7.38656L20.7595 8.51544L19.9339 9.65218ZM17.3386 8.51544C17.3386 7.76197 17.1152 7.02541 16.6966 6.39892C16.2779 5.77243 15.683 5.28414 14.9868 4.9958C14.2907 4.70745 13.5247 4.63201 12.7857 4.77901C12.0467 4.926 11.3679 5.28883 10.8351 5.82162C10.3024 6.35441 9.93952 7.03322 9.79252 7.77222C9.64553 8.51121 9.72097 9.27721 10.0093 9.97333C10.2977 10.6694 10.7859 11.2644 11.4124 11.683C12.0389 12.1016 12.7755 12.3251 13.529 12.3251C14.5389 12.3235 15.5069 11.9216 16.221 11.2075C16.9351 10.4934 17.337 9.52534 17.3386 8.51544ZM13.529 5.75833C12.9837 5.75833 12.4506 5.92003 11.9972 6.22297C11.5438 6.52592 11.1904 6.95651 10.9818 7.4603C10.7731 7.96408 10.7185 8.51843 10.8249 9.05324C10.9312 9.58806 11.1938 10.0793 11.5794 10.4649C11.965 10.8505 12.4562 11.1131 12.991 11.2195C13.5259 11.3259 14.0802 11.2713 14.584 11.0626C15.0878 10.8539 15.5184 10.5006 15.8213 10.0472C16.1243 9.59378 16.286 9.06073 16.286 8.51544C16.2839 7.78505 15.9927 7.08519 15.4761 6.5689C14.9594 6.05262 14.2594 5.76191 13.529 5.76033V5.75833Z" fill="#E3A747"/>
</g>
</svg>
