<svg width="27" height="27" viewBox="0 0 27 27" fill="none" xmlns="http://www.w3.org/2000/svg">
<g id="&#240;&#159;&#166;&#134; icon &#34;three friends&#34;">
<path id="Vector" d="M0 0H27V27H0V0Z" fill="white"/>
<path id="Vector_2" d="M20.5136 2.15381C21.4892 2.15381 22.3593 3.14469 22.3593 4.4757C22.3593 5.81146 21.4892 6.7976 20.5136 6.7976C19.538 6.7976 18.6679 5.81146 18.6679 4.4757C18.6679 3.14469 19.538 2.15381 20.5136 2.15381ZM13.5052 2.15381C14.4756 2.15381 15.3509 3.14469 15.3509 4.4757C15.3509 5.81146 14.4756 6.7976 13.5052 6.7976C12.5297 6.7976 11.6543 5.81146 11.6543 4.4757C11.6543 3.14469 12.5297 2.15381 13.5052 2.15381ZM6.49157 2.15381C7.46715 2.15381 8.33727 3.14469 8.33727 4.4757C8.33727 5.81146 7.46715 6.7976 6.49157 6.7976C5.51598 6.7976 4.64112 5.81146 4.64112 4.4757C4.64112 3.14469 5.51598 2.15381 6.49157 2.15381ZM13.5052 7.90502C16.8802 8.01049 19.7279 8.01049 23.1451 8.1265C24.7746 9.06518 25.5287 13.8745 25.4812 15.5462L24.5531 16.4796C24.147 14.2226 23.6355 11.2115 22.7865 10.5417V15.1613L23.0027 24.8486H21.832L20.9513 15.1085H20.0021L19.1214 24.8486H17.9455L18.167 15.1613L17.7451 10.4943H16.2L15.8203 15.1454L16.0418 24.8328H14.8658L13.9798 15.0927H13.0306L12.1447 24.8328H10.974L11.1955 15.1454L10.8105 10.4943H9.26539L8.84352 15.1613L9.065 24.8486H7.88903L7.00836 15.1085H6.05915L5.16846 24.8486H3.99776L4.21924 15.1613V10.5417C3.36495 11.2115 2.85342 14.2226 2.44737 16.4796L1.51924 15.5462C1.47178 13.8745 2.23116 9.06518 3.85538 8.1265C7.28258 8.01049 10.1302 8.01049 13.5052 7.90502Z" fill="#4626E6"/>
</g>
</svg>
