<svg width="27" height="27" viewBox="0 0 27 27" fill="none" xmlns="http://www.w3.org/2000/svg">
<g id="&#240;&#159;&#166;&#134; icon &#34;queen crown&#34;">
<path id="Vector" d="M0 0H27V27H0V0Z" fill="white"/>
<path id="Vector_2" d="M9.92883 3.13628C8.92234 3.13628 8.10633 3.95198 8.10633 4.95878C8.10633 5.80659 8.68551 6.51814 9.46914 6.72222L7.6053 11.0431C8.44256 11.1952 9.07685 11.9282 9.07685 12.8097C9.07685 13.8014 8.27371 14.606 7.2823 14.606C6.29079 14.606 5.48765 13.8013 5.48765 12.8096C5.48765 12.1046 5.89386 11.4953 6.48464 11.2012L3.805 7.0236C4.22724 6.71668 4.50214 6.21993 4.50214 5.65751C4.50214 4.72448 3.74731 3.96685 2.81465 3.96685C1.88188 3.96685 1.12546 4.72464 1.12546 5.65751C1.12546 6.59054 1.88188 7.3467 2.81454 7.3467C2.85325 7.3467 2.89195 7.34596 2.92992 7.34343L5.13986 19.3141H21.8039L24.0154 7.34343C24.0534 7.34596 24.0921 7.34675 24.1308 7.34675C25.0634 7.34675 25.8199 6.59054 25.8199 5.65757C25.8199 4.72454 25.0634 3.9669 24.1308 3.9669C23.1981 3.9669 22.4417 4.7247 22.4417 5.65757C22.4416 6.22304 22.7204 6.72212 23.1469 7.02866L20.4756 11.2227C21.044 11.5244 21.4315 12.1213 21.4315 12.8097C21.4315 13.8014 20.6283 14.606 19.6369 14.606C18.6455 14.606 17.8423 13.8014 17.8423 12.8097C17.8423 11.9074 18.5068 11.1608 19.3731 11.0332L17.5406 6.73366C18.3461 6.54503 18.9464 5.82205 18.9464 4.95878C18.9464 3.95187 18.1303 3.13628 17.1239 3.13628C16.1172 3.13628 15.3011 3.95198 15.3011 4.95878C15.3011 5.73915 15.792 6.4045 16.4811 6.66448L14.1328 10.6707C14.9038 10.9091 15.4644 11.6258 15.4644 12.4752C15.4644 13.5191 14.6178 14.3653 13.5741 14.3653C12.5305 14.3653 11.6856 13.5191 11.6856 12.4751C11.6856 11.6758 12.1815 10.9932 12.882 10.7168L10.5552 6.67102C11.253 6.41552 11.7516 5.74542 11.7516 4.95873C11.7516 3.95182 10.9355 3.13623 9.92893 3.13623L9.92883 3.13628ZM5.13833 20.2995C3.87387 20.498 3.93282 22.4007 5.35918 22.4007H5.71018L5.71356 22.4189H21.2322L21.2356 22.4007H21.6377C23.0105 22.4007 23.1079 20.5061 21.8651 20.2997H5.13828L5.13833 20.2995Z" fill="#F5D923"/>
</g>
</svg>
