<svg width="27" height="27" viewBox="0 0 27 27" fill="none" xmlns="http://www.w3.org/2000/svg">
<g id="&#240;&#159;&#166;&#134; icon &#34;heart plus&#34;">
<path id="Vector" d="M0 0H27V27H0V0Z" fill="white"/>
<path id="Vector_2" d="M19.6425 1.646C15.5477 1.646 13.5 5.11223 13.5 5.11223C13.5 5.11223 11.4523 1.64652 7.3575 1.64652C5.39895 1.64652 1.67432 3.42473 1.67432 8.24518C1.67432 16.7481 13.5 25.3538 13.5 25.3538C13.5 25.3538 25.3257 16.7481 25.3257 8.24518C25.3257 3.4242 21.6011 1.64652 19.6425 1.646ZM11.9701 7.7115H15.1709V11.8994H19.3495V15.1004H15.1709V19.313H11.9701V15.1004H7.74794V11.8994H11.9701V7.7115Z" fill="#4CE941"/>
</g>
</svg>
