<svg width="27" height="27" viewBox="0 0 27 27" fill="none" xmlns="http://www.w3.org/2000/svg">
<g id="&#240;&#159;&#166;&#134; icon &#34;path distance&#34;">
<path id="Vector" d="M0 0H27V27H0V0Z" fill="white"/>
<path id="Vector_2" d="M4.88323 1.10742C3.19573 1.10742 1.50612 2.37305 1.50612 4.9043L4.88323 11.6543L8.25823 4.9043C8.25823 2.37305 6.57073 1.10742 4.88323 1.10742ZM19.7701 3.16406C19.4063 3.17936 19.053 3.24844 18.7576 3.31172L18.958 4.23984C19.2533 4.17393 19.5592 4.13227 19.8176 4.11328L19.7701 3.16406ZM4.88323 3.2168C5.81663 3.2168 6.57073 3.97248 6.57073 4.9043C6.57073 5.8377 5.81663 6.5918 4.88323 6.5918C3.95141 6.5918 3.19573 5.8377 3.19573 4.9043C3.19573 3.97248 3.95141 3.2168 4.88323 3.2168ZM20.8196 3.22734L20.6614 4.16074C20.9197 4.21506 21.1781 4.28309 21.4049 4.41914L21.8637 3.58594C21.542 3.41455 21.1834 3.26057 20.8196 3.22734ZM17.7873 3.58066C17.4656 3.70617 17.144 3.8185 16.8698 3.92871L17.2442 4.79883C17.5342 4.67543 17.8401 4.56785 18.0985 4.47715L17.7873 3.58066ZM22.7285 4.2873L22.0061 4.9043C22.1959 5.12156 22.3436 5.38945 22.4596 5.60566L23.3086 5.17852C23.1293 4.83311 22.9711 4.57154 22.7285 4.2873ZM15.9891 4.33477C15.6674 4.49877 15.4037 4.64484 15.119 4.78828L15.583 5.62148C15.8573 5.46328 16.1578 5.31035 16.4004 5.18906L15.9891 4.33477ZM14.2858 5.27871C14.0063 5.44219 13.7321 5.60566 13.4631 5.78496L13.9799 6.57598C14.2383 6.40723 14.5073 6.24902 14.7709 6.09082L14.2858 5.27871ZM23.6356 6.22266C23.3244 6.27539 23.008 6.3123 22.6969 6.34922C22.718 6.61289 22.7022 6.89766 22.6494 7.11914L23.5723 7.33535C23.625 6.95566 23.6725 6.56543 23.6356 6.22266ZM12.6615 6.3123C12.3979 6.4916 12.1395 6.67617 11.8758 6.85547L12.4242 7.63066C12.6774 7.44609 12.9358 7.27207 13.1942 7.09277L12.6615 6.3123ZM11.1006 7.425C10.8369 7.61484 10.5627 7.82578 10.336 7.9998L10.9108 8.75391C11.2008 8.54297 11.4012 8.38477 11.6649 8.18965L11.1006 7.425ZM22.333 7.84688C22.1748 8.08945 21.9903 8.33203 21.8057 8.5166L22.4965 9.17578C22.7233 8.90684 22.9658 8.63262 23.1346 8.3584L22.333 7.84688ZM9.58186 8.59043C9.32346 8.79082 9.06506 8.99648 8.83831 9.18633L9.43948 9.91934C9.68733 9.71367 9.94045 9.50273 10.1725 9.33398L9.58186 8.59043ZM21.1518 9.12305C20.9092 9.31816 20.6561 9.50801 20.424 9.66621L20.9672 10.4467C21.2467 10.2568 21.5209 10.0512 21.7582 9.86133L21.1518 9.12305ZM8.1053 9.80332C7.85745 10.0037 7.62014 10.2146 7.37756 10.4203L7.99456 11.1428C8.23186 10.9371 8.46916 10.7314 8.71174 10.5311L8.1053 9.80332ZM19.6489 10.1725C19.3799 10.3307 19.1004 10.4941 18.8473 10.6313L19.3008 11.4697C19.5856 11.2957 19.9072 11.1428 20.1446 10.9846L19.6489 10.1725ZM6.6551 11.0479C6.4178 11.2588 6.18577 11.4697 5.94846 11.6859L6.58655 12.3926C6.81858 12.1816 7.05588 11.9707 7.28791 11.7598L6.6551 11.0479ZM18.0194 11.0689C17.7399 11.2061 17.4604 11.3484 17.1809 11.4855L17.5869 12.3398C17.9139 12.1816 18.1565 12.0498 18.4518 11.9127L18.0194 11.0689ZM16.3319 11.8811C16.0418 12.0129 15.7623 12.1395 15.467 12.2607L15.852 13.1309C16.142 13.0043 16.4321 12.8725 16.7221 12.7406L16.3319 11.8811ZM5.25237 12.3398C4.98342 12.5771 4.79622 12.7617 4.551 12.999L5.22073 13.6846C5.46858 13.4473 5.66897 13.2416 5.901 13.0412L5.25237 12.3398ZM14.6022 12.6457C14.3121 12.767 14.0221 12.8936 13.7321 13.0148L14.1012 13.8955C14.3965 13.7742 14.6865 13.6477 14.9766 13.5211L14.6022 12.6457ZM12.8567 13.384C12.5666 13.5105 12.2766 13.6371 11.9813 13.7531L12.3504 14.6338C12.6405 14.5125 12.9358 14.3859 13.2258 14.2646L12.8567 13.384ZM22.602 13.7637C20.9145 13.7637 19.227 15.0293 19.227 17.5605L22.602 24.3105L25.977 17.5605C25.977 15.0293 24.2895 13.7637 22.602 13.7637ZM11.1059 14.1223C10.8053 14.2594 10.4889 14.3859 10.2305 14.4967L10.6049 15.3721C10.916 15.2402 11.2114 15.1137 11.475 14.9977L11.1059 14.1223ZM9.3551 14.8711C9.07034 15.0029 8.73811 15.1506 8.48498 15.2666L8.87522 16.1314C9.18635 15.9943 9.46057 15.8572 9.73479 15.7412L9.3551 14.8711ZM7.61487 15.6621C7.31955 15.8045 7.0137 15.9521 6.75002 16.084L7.17717 16.933C7.46194 16.7854 7.75725 16.6482 8.01565 16.5217L7.61487 15.6621ZM22.602 15.873C23.5354 15.873 24.2895 16.6271 24.2895 17.5605C24.2895 18.4939 23.5354 19.248 22.602 19.248C21.6686 19.248 20.9145 18.4939 20.9145 17.5605C20.9145 16.6271 21.6686 15.873 22.602 15.873ZM5.89573 16.5217C5.61623 16.6746 5.33674 16.8328 5.05198 16.9963L5.52659 17.8189C5.79553 17.6607 6.06975 17.5131 6.34397 17.3654L5.89573 16.5217ZM4.22405 17.5078C3.92821 17.6766 3.64239 17.9033 3.39612 18.0668L3.97092 18.8262C4.23301 18.6363 4.51514 18.4412 4.74084 18.3041L4.22405 17.5078ZM2.64729 18.6996C2.39417 18.9316 2.14473 19.2006 1.9512 19.4273L2.67366 20.0443C2.87668 19.7965 3.05334 19.6119 3.29065 19.401L2.64729 18.6996ZM14.1328 18.7682L14.2172 19.7121C14.4914 19.6646 14.7656 19.6963 15.0399 19.7385L15.2033 18.8051C14.8553 18.7523 14.4862 18.7154 14.1328 18.7682ZM12.1711 19.2955L12.5297 20.1762C12.8039 20.0549 13.0887 19.96 13.3787 19.8703C13.2785 19.5697 13.2047 19.2639 13.1256 18.958C12.7934 19.0529 12.4612 19.1795 12.1711 19.2955ZM16.258 19.248L15.7201 20.0285C15.9416 20.192 16.1578 20.366 16.3319 20.5822L17.049 19.96C16.7801 19.6857 16.5744 19.4273 16.258 19.248ZM11.2746 19.7227C10.9846 19.8703 10.7051 20.0391 10.4256 20.2025L10.9055 21.0199C11.1797 20.8723 11.4487 20.6982 11.7176 20.5559L11.2746 19.7227ZM1.37165 20.3027C1.21239 20.6455 1.08319 21.0146 1.02307 21.3416L1.95647 21.5051C2.01342 21.2045 2.09516 20.9883 2.21487 20.7299C1.92536 20.6033 1.64903 20.4504 1.37165 20.3027ZM9.60295 20.7141C9.33401 20.8881 9.07034 21.0621 8.80666 21.2414L9.33401 22.0324C9.59768 21.8584 9.85608 21.6791 10.1198 21.5051L9.60295 20.7141ZM17.6555 20.7773L16.8592 21.2941C17.028 21.5473 17.1914 21.8109 17.3444 22.0799L18.167 21.6053C17.9824 21.31 17.8506 21.0463 17.6555 20.7773ZM8.02092 21.7793C7.75725 21.9533 7.49358 22.1221 7.23518 22.3066L7.76252 23.0977C8.01565 22.9131 8.28459 22.7391 8.55354 22.5598L8.02092 21.7793ZM1.96702 22.2803C1.66168 22.3436 1.35372 22.3963 1.0468 22.4543C1.10217 22.8234 1.25036 23.182 1.3843 23.4668L2.24124 23.0555C2.1268 22.7918 2.01817 22.5176 1.96702 22.2803ZM18.6364 22.4279L17.8137 22.9025C17.9772 23.1873 18.167 23.4932 18.3199 23.7357L19.1162 23.2242C18.9369 22.9447 18.784 22.6811 18.6364 22.4279ZM6.45471 22.8234C6.19104 22.9869 5.93264 23.1451 5.65842 23.298L6.12776 24.126C6.40725 23.9625 6.68674 23.799 6.95569 23.625L6.45471 22.8234ZM2.69475 23.683L2.04612 24.3791C2.33932 24.6586 2.70108 24.8432 3.09553 24.9275L3.30647 24.0047C3.07233 23.9572 2.85348 23.8412 2.69475 23.683ZM4.85686 23.6988C4.59266 23.8201 4.31844 23.915 4.0342 23.973L4.25041 24.9012C4.58897 24.8326 4.90748 24.7061 5.226 24.5742L4.85686 23.6988ZM19.6383 23.952L18.9053 24.5479C19.1321 24.8273 19.4115 25.0963 19.6541 25.2861L20.2395 24.5373C20.0074 24.358 19.8071 24.1418 19.6383 23.952ZM20.9092 24.8748L20.6719 25.7977C21.0885 25.882 21.3996 25.9084 21.7899 25.8662L21.6739 24.9223C21.4155 24.9645 21.1623 24.9381 20.9092 24.8748Z" fill="#CA3589"/>
</g>
</svg>
