<svg width="27" height="27" viewBox="0 0 27 27" fill="none" xmlns="http://www.w3.org/2000/svg">
<g id="&#240;&#159;&#166;&#134; icon &#34;abstract 100&#34;">
<path id="Vector" d="M0 0H27V27H0V0Z" fill="white"/>
<path id="Vector_2" d="M9.05416 1.10742C8.19069 1.10742 7.4896 1.84064 7.4896 2.75454V6.33113C7.4896 6.93909 7.80219 7.46541 8.26413 7.75078L1.10742 12.4647L5.74691 25.8926H13.5H21.2609L25.8926 12.4647L18.7359 7.75078C19.1978 7.4654 19.5104 6.93909 19.5104 6.33113V2.75454C19.5104 1.84064 18.8093 1.10742 17.9458 1.10742H9.05416ZM10.0378 2.88788H16.9622C17.0901 2.88788 17.2081 2.91744 17.3184 2.96631C17.3211 2.96745 17.3241 2.96517 17.3261 2.96631C17.434 3.01506 17.531 3.08415 17.6127 3.17024C17.6543 3.2141 17.6959 3.25972 17.7289 3.31142C17.8279 3.46652 17.8838 3.65735 17.8838 3.86046V5.97817C17.8838 6.18128 17.8279 6.37074 17.7289 6.52721C17.6959 6.57937 17.6543 6.62404 17.6127 6.66839C17.5438 6.74177 17.4602 6.80093 17.3726 6.84879L13.4999 4.29969L9.62723 6.84879C9.5387 6.8007 9.45763 6.74179 9.38711 6.66839C9.34553 6.62404 9.30396 6.57937 9.27094 6.52721C9.1719 6.37074 9.11604 6.18128 9.11604 5.97817V3.86046C9.11604 3.65735 9.1719 3.46651 9.27094 3.31142C9.30396 3.25972 9.34552 3.2141 9.38711 3.17024C9.55521 2.99734 9.78408 2.88788 10.0378 2.88788ZM12.8261 6.18995L12.4853 9.82929C10.6732 10.139 9.13256 11.2639 8.22542 12.8255C6.96078 12.7399 5.72747 12.6296 4.53087 12.4882L12.8261 6.18995ZM14.1739 6.18995L22.4691 12.496C21.273 12.6374 20.0379 12.7491 18.7746 12.8333C17.868 11.2692 16.3277 10.1399 14.5147 9.82929L14.1739 6.18995ZM13.5 11.5156C13.5761 11.5156 13.6494 11.5196 13.7246 11.5235H13.7323H13.7476C13.8642 11.5302 13.9822 11.539 14.0962 11.5548C14.1216 11.5583 14.1483 11.5666 14.1736 11.5705C14.2439 11.5816 14.3138 11.5953 14.3828 11.6098C14.3854 11.6101 14.388 11.6094 14.3904 11.6098C14.3954 11.6109 14.4011 11.6086 14.4058 11.6098C14.4115 11.6109 14.4159 11.6164 14.4214 11.6176C14.4957 11.6339 14.5655 11.6524 14.6383 11.6725C14.7522 11.7038 14.8689 11.7421 14.9791 11.7823C15.0368 11.8034 15.0929 11.8216 15.1495 11.845C15.2024 11.8671 15.2525 11.8916 15.3044 11.9156C15.3779 11.9495 15.4499 11.9876 15.5212 12.0254C15.5708 12.0517 15.6199 12.0757 15.6684 12.1039C15.7962 12.1781 15.9205 12.2604 16.0402 12.347C16.1615 12.4349 16.2768 12.5297 16.3887 12.6294C16.4949 12.724 16.5937 12.823 16.6908 12.9274C16.6952 12.9323 16.7017 12.9382 16.7061 12.9431C17.1161 13.3887 17.4351 13.9164 17.6433 14.504C17.6481 14.5175 17.6543 14.5295 17.6587 14.5432C17.693 14.6429 17.7241 14.7463 17.7516 14.8491C17.7559 14.865 17.7633 14.8801 17.7673 14.8961C17.798 15.0161 17.8234 15.1411 17.8447 15.2648C17.8648 15.3765 17.8795 15.4876 17.8912 15.602C17.9065 15.7531 17.9145 15.9017 17.9145 16.057C17.9145 16.2346 17.9028 16.4023 17.8835 16.5746C17.8519 16.8581 17.7932 17.1409 17.7131 17.406C17.455 18.2587 16.9654 19.0002 16.3112 19.5551C16.2009 19.6488 16.0893 19.7315 15.9704 19.814C15.2657 20.3033 14.414 20.5905 13.4996 20.5905C12.5852 20.5905 11.7336 20.3033 11.0289 19.814C10.91 19.7315 10.7983 19.6488 10.6881 19.5551C10.4714 19.3714 10.2706 19.1658 10.0917 18.9433C10.0892 18.9418 10.0917 18.9355 10.0917 18.9355C9.82291 18.6009 9.60064 18.2345 9.43334 17.8295V17.8217C9.37745 17.686 9.32906 17.5481 9.28616 17.406C9.20581 17.1409 9.14766 16.8581 9.11576 16.5746C9.11329 16.5543 9.11006 16.5401 9.10808 16.5197C9.09296 16.3672 9.08478 16.2136 9.08478 16.057C9.08478 15.9017 9.09246 15.7531 9.10808 15.602C9.11923 15.4882 9.13544 15.376 9.15457 15.2648C9.17589 15.1411 9.20124 15.0161 9.232 14.8961C9.23621 14.8802 9.2434 14.8649 9.24761 14.8491C9.27517 14.7462 9.30624 14.6429 9.34056 14.5432C9.34527 14.5297 9.35122 14.5174 9.35593 14.504C9.56415 13.9164 9.88335 13.3887 10.2931 12.9431C10.2978 12.9381 10.3038 12.9324 10.3085 12.9274C10.4053 12.823 10.5044 12.724 10.6106 12.6294C10.7225 12.5296 10.8376 12.4349 10.9591 12.347C11.0785 12.2604 11.2029 12.1781 11.3309 12.1039C11.3792 12.0757 11.4285 12.0517 11.4781 12.0254C11.5496 11.9873 11.6211 11.9498 11.6949 11.9156C11.7051 11.9109 11.7158 11.9046 11.7259 11.8999L11.7801 11.8764C11.8029 11.8664 11.8267 11.8546 11.8498 11.845C11.9061 11.8216 11.9628 11.8033 12.0202 11.7823C12.1304 11.7421 12.2471 11.7037 12.361 11.6725C12.3744 11.6687 12.3864 11.6603 12.3997 11.6568C12.4599 11.6409 12.5168 11.6309 12.5779 11.6175L12.6166 11.6097C12.6858 11.5953 12.7555 11.5816 12.8257 11.5705C12.8512 11.5665 12.8776 11.5584 12.9032 11.5548C13.0172 11.539 13.1351 11.5301 13.2517 11.5234C13.3347 11.5187 13.4157 11.5156 13.5 11.5156ZM13.5 12.4098C11.5384 12.4098 9.94487 14.041 9.94487 16.057C9.94487 17.5151 10.7783 18.7682 11.9819 19.3512C12.067 16.9889 12.7145 15.155 13.5 15.155C14.2855 15.155 14.9329 16.9889 15.0181 19.3512C16.2216 18.7682 17.0551 17.5151 17.0551 16.057C17.0551 14.041 15.4615 12.4098 13.5 12.4098ZM3.77956 14.0098C5.00506 14.1681 6.27287 14.2958 7.57481 14.3942C7.43383 14.9252 7.35794 15.48 7.35794 16.057C7.35794 17.0232 7.56936 17.9375 7.94659 18.7551L5.87083 20.261L3.77956 14.0098ZM23.2204 14.0098L21.1369 20.261L19.0534 18.7551C19.4306 17.9375 19.6421 17.0232 19.6421 16.057C19.6421 15.48 19.5662 14.9252 19.4252 14.3942C20.7253 14.2958 21.9953 14.168 23.2204 14.0098ZM18.031 20.3159L20.6954 21.5787L19.7583 24.3866H14.414V22.2925C15.838 22.0747 17.1027 21.3555 18.031 20.3159ZM8.96898 20.3238C9.89691 21.361 11.164 22.075 12.586 22.2924V24.3866H7.24948L6.31231 21.5787L8.96898 20.3238Z" fill="url(#paint0_linear_1747_5251)"/>
</g>
<defs>
<linearGradient id="paint0_linear_1747_5251" x1="13.5" y1="1.10742" x2="13.5" y2="25.8926" gradientUnits="userSpaceOnUse">
<stop stop-color="#A55900"/>
<stop offset="1" stop-color="#E34444"/>
</linearGradient>
</defs>
</svg>
