<svg width="27" height="27" viewBox="0 0 27 27" fill="none" xmlns="http://www.w3.org/2000/svg">
<g id="&#240;&#159;&#166;&#134; icon &#34;fire&#34;">
<path id="Vector" d="M13.5 27C20.9558 27 27 20.9558 27 13.5C27 6.04416 20.9558 0 13.5 0C6.04416 0 0 6.04416 0 13.5C0 20.9558 6.04416 27 13.5 27Z" fill="white"/>
<path id="Vector_2" d="M13.5 24.1523C19.3831 24.1523 24.1523 19.3831 24.1523 13.5C24.1523 7.61687 19.3831 2.84766 13.5 2.84766C7.61687 2.84766 2.84766 7.61687 2.84766 13.5C2.84766 19.3831 7.61687 24.1523 13.5 24.1523Z" fill="white" stroke="#EF1A1A" stroke-width="1.62209"/>
<path id="Vector_3" d="M10.4431 8.77275C10.4431 11.723 13.5 12.2147 13.5 14.6733C13.5 15.6568 12.4811 17.132 10.9526 17.132C9.42416 17.132 8.40523 15.6568 9.42416 13.1982C7.89581 14.1816 7.38629 15.1651 7.38629 16.1485C7.38629 18.6072 9.93368 21.0658 13.5 21.0658C17.0662 21.0658 19.6136 19.5906 19.6136 16.6403C19.6364 12.2762 14.4034 10.8184 12.9905 8.77264C11.9717 7.29745 12.4811 6.31406 13.4999 5.33057C11.4621 5.82237 10.4431 7.19926 10.4431 8.77275Z" fill="#EF1A1A"/>
</g>
</svg>
